<?xml version="1.0" encoding="UTF-8"?>
<svg id="Layer_1" data-name="Layer 1" xmlns="http://www.w3.org/2000/svg" viewBox="0 0 1076.98 1169.75">
  <path d="M773.79,1090.68c.72,2.34,2.62,1.91,4.45,2.06,23.18,1.92,46.25,2.38,69.55,3.94,5.64.38,11.37.59,17,1s7.8.29,13,0c.31-.02.7-.05,1,0,8.15,1.32,13.79,1.84,22.14,2.58,14.33,1.27,25.05,4.02,39.38,2.76,1.3-.11,3.08,2.46,5.09,2.69,1.48.17,2.25-1.03,2.38-1.04.6-.03,1.51-.12,2,0,22.59,5.36,48.36,6.23,70.96,14.54,21.12,7.76,13.61,14.32-2.95,19.97-6.12,2.09-12.71,3.1-19.01,4.49-1.32.29-2.58.71-4,1-36.31,7.48-75.95,10.96-113,14-2.3.19-4.7-.18-7,0-4.19.33-8.66.69-13,1-3.48.25-7.29.75-11,1-57.01,3.83-113.87,5.67-171,7-9.35.22-18.73.82-28,1-75.29,1.43-150.78,1.42-226,0-9.27-.17-18.65-.78-28-1-57.14-1.32-113.97-3.2-171-7-3.63-.24-7.38.26-11,0-4.02-.29-8.72-.67-13-1-1.68-.13-4.46-.79-7-1-36.22-2.97-76.49-6.02-112-13-1.17-.23-2.6-.7-4-1-11.67-2.5-23.35-5.47-34-11-.87-1.13-1.09-1.19-2-2-.89-5.7,1.13-7.32,5.68-9.82,7.52-4.14,16.69-4.41,24.32-8.18.33,0,.67,0,1,0,14.72.17,43.03-6.91,59.62-8.88,27.02-3.2,54.24-5.15,81.38-7.12,24.11-1.75,48.32-3.56,72.49-4.01l20.51-1.99c44.33,24.36,93.95,36.13,144.21,24.71,22.35-5.08,46.37-16.21,69.25-17.75,43.03-2.89,78.18,13.02,119.17,17.91,45.4,5.42,92.28-4.4,132.37-25.87Z" style="fill: #dcdcdc;"/>
  <path d="M393.79,10.68l3,1c1,1.23,22.18,10.35,25,11,.43,1.43,1.54,1.99,3,2,3.82,4.15,16.23,10.01,21.25,13.98,2.22,1.75,6.11,5.7,8.75,8.02.61.53,1.15,1.28,2,2,2.61,2.23,3.37,5.09,7,5v1c-.21,3.26,3.43,3.82,4.7,5.29,6.37,7.43,15.22,19.33,20.3,27.71,1.48,2.44,3.58,6.36,5,9,13.86,25.69,21.51,50.95,29,79,.25.93-.39,2.37,1,3-.37,3.59-.15,9.25,3.99,10,2.65-16.18,7.84-32.55,13.56-47.97,3.25-8.78,7.3-18.93,11.45-28.03.53-1.17,1.33-2.55,2-4,1.3-2.8,2.72-4.47,4-8,.43-1.18,1.65-2.15,1-4,5.39-2.25,6.27-8.67,9-13,.2-.31,1.31-.95,2-2,5.89-8.94,12.06-18.08,19.02-26.48,8.55-10.32,18.44-19.21,27.21-29.26,3.18-.76,6.55,0,9.76-.26,3.43-.28,5.97-1.27,10-1,33.41,2.25,44.38,21.46,41,53-.07.65.05,1.34,0,2-2.1,1.15-2.65,2.06-4,3-.44.31-1.26.45-2,1-6.94,5.16-11.89,10.17-18,16-1.53,1.46-1.83,2.83-2,3-8.38,8.23-12.77,12.4-20.38,21.63-2.66,3.22-10.42,9.01-10.62,13.37-1.14.3-1.41,1.3-2,2-3.46,4.04-8.82,11.11-10,16-1.79-.37-2.28.25-2,2-5.02,3.11-17.13,31.21-20,38-.25.6-.68,1.22-1,2-.47,1.15-.71,2.33-1,3-.49,1.12-2.66,2.02-1.99,4,1.42.07,2.66-.67,3.99-1,3.33-.82,6.79-1.25,10-2,1.34-.31,2.67-.66,4-1,7.42-1.9,14.79-4.44,22-7,2.11-.75,2.83-1.94,3-2,8.63-3.15,17.31-6.56,26-10,2-.79,5.37-.37,7-3,2.93-.54,4.67-1.41,7-2,46.51-11.71,77.58-20.31,127-17,1.65.11,3.35-.14,5,0,.99.08,2.02-.09,3,0,.51.05,2.22.8,4,1,2.19.25,4.02.73,6,1,23.6,3.19,42.7,8.03,65,16,2.99,1.07,7.25,1.9,10,3,14.82,5.92,30.18,14.01,44,22,.71.41,1.45.68,2,1,3.66,2.15,7.43,4.67,11,7,.99.64,2.01,1.34,3,2,5.85,3.91,12.46,8.67,18,13,1.05.82,2.24,1.39,3,2,13.7,10.94,30.35,27.46,42,41,.69.8,1.94.91,2,1,2.99,4.71,4.76,6.64,8,11,.28.37.46,1.27,1,2,6.27,8.61,12.77,18.71,18,28,.73,1.29,1.3,2.69,2,4,3.1,5.75,6.33,12.05,9,18,.47,1.06.63,2.14,1,3,1.58,3.65,3.58,7.27,5,11,.64,1.69,1.73,3.25,2,4,2.21,6.17,5.22,16.46,7,23,.79,2.92,1.28,7.03,2,10,6.48,26.78,10.09,54.38,11,82,.03,1-.03,2,0,3,.47,17.29.02,34.76-1,52-.2,3.44-.73,6.62-1,10-.89,11.35-2.05,22.66-3,34-.21.2-.94,1.67-1,2-2.25,12.75-2.78,26.19-5,39-.34,1.99-.65,4.03-1,6-1.58,8.83-3.22,18.27-5,27-.23,1.15-1.66,3.36-2,5-2.81,13.39-5.63,25.75-9,39-.34,1.34-.65,2.66-1,4-2.15,8.25-3.71,18.21-6,26-.28.95-1.36,2.89-2,5-8.52,28.19-26.07,62.46-32,89-.08.34.12.92,0,1-4.17,2.75-9.34,17.46-12.14,23.36s-12.29,21.62-11.86,26.64c-.57.36-2.41-.04-2.87,1.6-5.74,11.81-12.39,23.17-19.13,34.4-.6,1-.65,2.41-1,3-5.01,8.29-10.83,16.9-16,25-.29.45-1.97,1.46-3,3-.15.23.15.76,0,1-.52.83-2.83,1.43-2,4-.55.08-1.06-.22-1.76.22-1.63,1.04-6.92,11.06-8.64,13.39-4.69,6.34-9.83,13.31-14.6,19.39-1.49,1.9-3.39,4-5,6-3.78,4.69-8.06,9.4-12,14-.61.71-.76,1.72-1,2-1.28,1.48-3.33,3.09-5,5-.31.35-.69.65-1,1-2.33,2.64-4.64,5.41-7,8-1.62,1.77-3.12,4.05-4,5-.12.13-1.57.5-3,2-1.56,1.65-2.52,3.49-3,4-.32.34-.67.66-1,1-1.59,1.66-3.36,3.32-5,5-.33.34-.67.66-1,1-1.94,1.97-4.03,4.06-6,6-1.49,1.46-3.05,2.08-4,3-1.91,1.85-3.2,2.53-5,5-.82,1.12-1.28,1.76-2,3-3.09-.49-1.57.86-2,2-1.56.72-2.39.94-4,2-2.19,1.44-2.67,2.86-4,4-2.23,1.91-4.8,4.97-6,6-.27.23-1.27.38-2,1s-.85,1.87-1,2c-.78.66-2.67.9-4,2-.88.73-1.45,1.54-2,2-3.17,2.65-21.43,15.73-22,17-.11.25.09.67,0,1-7.59,4.06-14.8,8.7-22.24,13.05-1.52.89-5.28,4.15-6.76,4.95-40.1,21.47-86.97,31.29-132.37,25.87-40.99-4.9-76.14-20.8-119.17-17.91-22.88,1.54-46.91,12.67-69.25,17.75-50.26,11.42-99.88-.35-144.21-24.71-92.08-50.59-186.45-178.28-235.52-269.98C-39.59,610.81-47.3,249.24,232.79,173.35l36-5.67c.32-1.8-1.22-2.61-2-3.99-.38-.68.97-2.63-2-2,.1-1.47-6.77-9.1-8.47-11.03-2.67-3.04-12.86-14.49-15.53-15.97l-1-2c.28-1.26-3.56-4.56-5-6,.32-1.9-.09-2.34-2-2-3.88-5.72-5.36-5.61-8.68-9.33-1.62-1.82-3.95-7.66-5.75-9.74-2.21-2.56-8.8-6.87-10.57-8.93-3-3.49-4.02-5.4-8-9-4.62-4.17-8.19-6.48-13-10-1.58-1.16-2.79-2.5-5-4-6.98-4.74-29.7-19.13-37-19,.11-4.99-12.98-3.03-9.88-7.89.77-1.2,22.7-10.77,25.88-12.11,1.53-.64,3.47-1.38,5-2,9.15-3.72,22.19-9.1,31-12,.53-.18,1.46.17,2,0,2.93-.95,6.19-2.15,9-3,1.05-.32,2.09-.73,3-1,6.73-1.97,14.14-3.34,21-5,1.1-.27,2.11-.79,3-1,7.87-1.85,16.04-3.57,24-5,2.32-.42,4.69-.63,7-1,5.05-.81,9.91-1.41,15-2,29.63-3.45,56.43-4.19,86.02,1.48,6.78,1.3,21.72,6.67,26.98,6.52ZM164.79,41.68c-3.47,1.5-7.52,2.7-10.71,4.76-.97.63-1.79-.11-1.28,2.22,53.77,20.48,83.54,70.32,120.48,111.03,26.31,28.99,53.04,58.27,91.75,70.25,47.13,14.59,103.01,5.23,145.76-17.26,1.75-.92,9.65-2.96,10.05-4.71-1.03-4.13-.53-8.59-1.12-12.71-.12-.81-.89-1.36-.93-1.59-9.73-61.97-39.16-126.7-94.08-160.42-74.58-45.79-183.93-24.42-259.92,8.42ZM671.79,73.68v-14.5c0-1.52-3.32-9.78-4.35-11.65-7.74-13.95-28.13-17.14-42.6-14.81.65,25.05,21.87,43.77,46.95,40.96ZM525.79,315.68c.2.84-.13,2.06,0,3-2.33,0-4.67.07-7,0l-2.04-25.46c.11-4.85-.02-9.71.04-14.54.02-1.22.94-2.89.99-4.48.51-19.31.81-38.59,5.01-57.51-10.61,4.04-20.76,9.17-31.48,13.01-65.68,23.52-134.32,21.22-187.53-27.5-9.76-8.94-17.55-19.82-27.71-28.37-110.28,10.64-195.55,78.51-236.74,179.89-67.33,165.73-23.92,364.02,68.05,510.88,57,91.01,153.54,216.88,262.42,243.08,55.43,13.34,75.12.95,125.99-11.51,68.38-16.74,117.98,17.94,183.55,14.55,126.32-6.53,242.48-153.79,296.98-257.02,62.06-117.56,106.88-294.68,90.35-427.4-15.7-126.02-96.84-216.96-218.88-249.62-57.41-15.37-107.81-14.14-165,2.5-29.45,8.57-56.01,22.66-85.99,30.01-5.44,1.33-15.66.91-18.06,5.94-7.64,16.06-10.86,46.66-11.95,64.55-.74,12.09.04,21.35,0,33,0,.33,0,.67,0,1,0,1,0,2,0,3-2.14.22-4.34.79-7,1-2.61-31.37.1-62.71,8.5-93,15.61-56.29,50.92-105.48,94.49-143.51-7.01-1.42-15.72-2.93-22-6.5-13.81-7.85-18.2-20.85-22.74-34.79-.32-.98.16-3-1.75-2.2-1.01.42-13.16,13.84-15.03,15.98-53.23,61.12-74.83,142.63-76.44,222.56-.25,12.45-1.9,27.37.96,39.46Z" style="fill: #0f0c0b;"/>
  <path d="M847.79,176.68c53.66,127.4,87.86,269.67,69.88,409.38-34.22,265.86-245.56,416.82-481.34,499.66-20.08,7.06-41.69,14.16-62.2,19.8-1.63.45-3.69-.15-4.34,2.16-108.87-26.2-205.42-152.07-262.42-243.08C15.4,717.74-28.01,519.45,39.32,353.72c41.19-101.39,126.46-169.26,236.74-179.89,10.16,8.56,17.95,19.43,27.71,28.37,53.21,48.73,121.86,51.03,187.53,27.5,10.72-3.84,20.87-8.97,31.48-13.01-4.2,18.92-4.5,38.2-5.01,57.51-.04,1.59-.97,3.26-.99,4.48-18.6,7.94-36.65,16.96-56.75,20.75-10.33,1.95-21.03,1.8-31.25,4.25-15.72-4.93-29.28-9.79-44.02-17.48-1.46-.76-11.6-8.43-9.5-3.5,39.04,29.37,84.12,52.28,133.16,58.84,65.84,8.79,135.14-11.51,189.67-48.05,2.74-1.83,21.07-15.11,21.68-16.32.92-1.8-.82-1.51-2.11-1.11-18.12,5.62-37.41,18.54-56.88,19.62-32.19,1.79-63.39-7.74-94-16,1.1-17.89,4.31-48.49,11.95-64.55,2.4-5.04,12.61-4.61,18.06-5.94,29.98-7.34,56.54-21.44,85.99-30.01,57.19-16.64,107.59-17.87,165-2.5ZM721.29,274.68v1c.65-.33.65-.67,0-1ZM373.29,279.68v1c.65-.33.65-.67,0-1ZM269.79,286.69c-74.03-1.8-126.15,58.23-146.3,124.18-17.45,57.11-7.4,126.58,5.79,183.82,14.92,64.73,38.64,127.06,64.53,187.98,1.77.26.98-2.25.76-3.25-4.83-22.03-13.31-44.99-18.48-67.53-30.97-135.12-41.04-309.87,72.24-410.18l21.47-15.02ZM196.78,680.68c3.4-2.33,1.41-26.27.74-31.23-.99-7.37-7.02-34.77-11.69-39.31-3.92-3.8-5.41.38-5.94,4.13-1.9,13.41,4.1,51.78,11.72,63.09.95,1.41,3.1,4.73,5.18,3.31ZM202.5,704.99c-6.41-5.64-7.12,9.23-6.71,13.2s4.46,18.28,9.37,17.35c7.2-1.36,2.39-26.1-2.66-30.55Z" style="fill: #d91f26;"/>
  <path d="M847.79,176.68c122.04,32.66,203.18,123.61,218.88,249.62,16.53,132.71-28.29,309.84-90.35,427.4-54.5,103.23-170.66,250.49-296.98,257.02-65.56,3.39-115.17-31.29-183.55-14.55-50.87,12.45-70.57,24.85-125.99,11.51.65-2.31,2.72-1.71,4.34-2.16,20.51-5.64,42.11-12.74,62.2-19.8,235.78-82.84,447.12-233.8,481.34-499.66,17.98-139.71-16.22-281.98-69.88-409.38Z" style="fill: #b21f25;"/>
  <path d="M518.79,193.68C440.76,122.63,344.55,61.14,236.8,51.69l28.53,8.95c85.67,29.54,165.95,76.43,231.46,139.04-4.96,2.74-11.46.14-16.46-.04-68.52-2.5-140.76-16.72-188.06-69.94-26.97-30.35-42.38-52.34-80.81-71.19-14.91-7.31-30.98-11.61-46.68-16.82,75.99-32.84,185.35-54.22,259.92-8.42,54.92,33.72,84.35,98.45,94.08,160.42ZM234.79,50.69c-1.4-.72-2.67.63-1.99.98,1.4.72,2.67-.63,1.99-.98Z" style="fill: #329846;"/>
  <path d="M164.79,41.68c15.7,5.22,31.77,9.51,46.68,16.82,38.43,18.85,53.84,40.84,80.81,71.19,47.29,53.23,119.53,67.44,188.06,69.94,5,.18,11.5,2.78,16.46.04,4.58,4.38,9.26,8.79,14,13-42.75,22.49-98.63,31.85-145.76,17.26-38.71-11.98-65.44-41.26-91.75-70.25-36.94-40.71-66.72-90.55-120.48-111.03-.51-2.33.32-1.6,1.28-2.22,3.19-2.06,7.24-3.26,10.71-4.76Z" style="fill: #26803e;"/>
  <path d="M525.79,315.68c-2.85-12.09-1.21-27.01-.96-39.46,1.61-79.92,23.22-161.43,76.44-222.56,1.86-2.14,14.02-15.55,15.03-15.98,1.91-.8,1.43,1.22,1.75,2.2,4.54,13.94,8.93,26.94,22.74,34.79-44.16,52.11-84.19,112.51-90.99,182.51-1.01,10.43-.01,22-1.02,31.98-1.23,12.22-11.46,23.07-22.99,26.51Z" style="fill: #d87338;"/>
  <path d="M660.79,295.68c19.47-1.08,38.76-14.01,56.88-19.62,1.29-.4,3.03-.68,2.11,1.11-.62,1.21-18.95,14.49-21.68,16.32-54.53,36.54-123.82,56.84-189.67,48.05-49.05-6.55-94.12-29.47-133.16-58.84-2.1-4.93,8.04,2.74,9.5,3.5,14.74,7.69,28.3,12.55,44.02,17.48,30.56,9.59,57.74,14.08,90,15,2.33.07,4.67,0,7,0,11.35.05,22.69-.09,34-1,2.66-.21,4.86-.78,7-1,30.67-3.11,61.85-9.05,91.24-18.3,1.65-.52,3.26-.23,2.76-2.7Z" style="fill: #941b1d;"/>
  <path d="M518.79,193.68c.04.22.81.77.93,1.59.59,4.12.09,8.58,1.12,12.71-.4,1.74-8.3,3.79-10.05,4.71-4.74-4.21-9.42-8.62-14-13-65.51-62.61-145.8-109.5-231.46-139.04l-28.53-8.95c107.75,9.45,203.97,70.93,281.99,141.99Z" style="fill: #1d4c24;"/>
  <path d="M640.79,74.68c6.27,3.56,14.99,5.07,22,6.5-43.58,38.03-78.88,87.21-94.49,143.51-8.4,30.29-11.11,61.63-8.5,93-11.31.91-22.65,1.05-34,1-.13-.94.2-2.16,0-3,11.53-3.44,21.75-14.3,22.99-26.51,1.01-9.98,0-21.55,1.02-31.98,6.8-70,46.84-130.4,90.99-182.51Z" style="fill: #983e21;"/>
  <path d="M660.79,295.68c.5,2.46-1.11,2.18-2.76,2.7-29.39,9.25-60.58,15.19-91.24,18.3,0-1,0-2,0-3l.98-.5-.98-.5c.04-11.65-.74-20.91,0-33,30.61,8.26,61.81,17.79,94,16Z" style="fill: #b21f25;"/>
  <path d="M516.79,278.68c-.06,4.84.06,9.69-.04,14.54l2.04,25.46c-32.26-.92-59.44-5.41-90-15,10.22-2.46,20.92-2.31,31.25-4.25,20.1-3.78,38.15-12.81,56.75-20.75Z" style="fill: #b21f25;"/>
  <path d="M671.79,73.68c-25.08,2.81-46.3-15.91-46.95-40.96,14.47-2.33,34.86.86,42.6,14.81,1.04,1.87,4.35,10.12,4.35,11.65v14.5Z" style="fill: #983e21;"/>
  <path d="M269.79,286.69l-21.47,15.02c-113.27,100.31-103.21,275.06-72.24,410.18,5.17,22.54,13.64,45.5,18.48,67.53.22,1,1.01,3.51-.76,3.25-25.89-60.92-49.61-123.25-64.53-187.98-13.19-57.24-23.24-126.72-5.79-183.82,20.15-65.96,72.27-125.98,146.3-124.18Z" style="fill: #e54c4e;"/>
  <path d="M196.78,680.68c-2.07,1.43-4.23-1.9-5.18-3.31-7.61-11.31-13.61-49.68-11.72-63.09.53-3.75,2.03-7.93,5.94-4.13,4.67,4.53,10.7,31.94,11.69,39.31.67,4.95,2.66,28.89-.74,31.23Z" style="fill: #e54c4e;"/>
  <path d="M202.5,704.99c5.05,4.45,9.86,29.19,2.66,30.55-4.91.93-8.98-13.53-9.37-17.35s.3-18.84,6.71-13.2Z" style="fill: #e54c4e;"/>
</svg>