<?xml version="1.0" encoding="UTF-8"?>
<svg id="Layer_1" data-name="Layer 1" xmlns="http://www.w3.org/2000/svg" viewBox="0 0 5120 5120">
  <path d="M5120,0v5120H0V0h5120ZM2144,1684c-31.76-133.6-95.97-261.96-157.91-384.09-94.98-187.25-257.83-531.94-461.03-610.97-154.01-59.9-247.45,47.42-284.73,185.37-34.25,126.76-29.99,267.56-24.3,397.7-154.44-.85-427.1-9.84-533.69,124.31-165.52,208.35,212.65,437.81,358,525.33,192.92,116.17,406.42,215.18,627.67,262.33-212.92,586.26,515.69,1142.12,936.34,1417.66,507.48,332.42,1174.95,648.78,1756.6,823.4,15.38,4.62,91.66,28.49,100.32,26.35,18.89-4.66,25.31-55.66,21.83-72.52-3.11-15.05-17.66-26.85-22.04-37.94-17.29-43.85-28.6-117.93-43.98-168.02-106.44-346.59-287.47-715.34-464.37-1031.63-242.93-434.35-555.38-908.1-936.69-1229.31-249.19-209.91-540.08-372.01-872-228Z" style="fill: #fff;"/>
  <path id="Carrot" d="M3016,1912c-1.26-.92-26.97-7.27-30.32-7.66-23.56-2.74-45.46-.48-63.58,15.76l-436.19,435.81c-54.24,71.01,32.94,158.98,104.07,108.07l434.11-433.89c30.77-34.71,27.37-75.98-4.23-108.13-3.08-3.13-3.43-9.65-3.86-9.96,381.31,321.21,693.76,794.96,936.69,1229.31,176.9,316.29,357.93,685.04,464.37,1031.63,15.38,50.09,26.7,124.16,43.98,168.02,4.37,11.09,18.93,22.89,22.04,37.94,3.48,16.87-2.94,67.86-21.83,72.52-8.66,2.14-84.93-21.73-100.32-26.35-581.65-174.62-1249.12-490.99-1756.6-823.4-420.65-275.54-1149.25-831.4-936.34-1417.66,11.36-31.29,39.28-91.35,56-120,56.22-96.35,192.44-240.22,284-304,32.6-22.71,99.65-60.23,136-76,331.92-144.01,622.81,18.09,872,228ZM3342.94,2320.96c-11.75,2.01-25.69,9.4-35.03,16.95l-415.81,416.19c-58.85,70.26,20.78,159.78,97.93,113.93l430-430c35.94-58.64-7.41-129-77.09-117.07ZM3650.97,2816.93c-11.57,1.85-25.84,9.59-35.06,16.99l-353.64,354.35c-46.89,77.67,46.69,154.41,115.63,95.64l339.75-340.25c46.71-52.62,3.38-137.9-66.68-126.73Z" style="fill: #ef6d01;"/>
  <path id="Carrot_Leaveoutside" d="M2144,1684c-36.35,15.77-103.4,53.29-136,76-96.65-190.78-224.98-363.14-337.67-544.33-44.48-71.52-76.14-142.46-130.44-209.56-7.3-9.02-56.87-64.97-61.95-66.09-11.21-2.49-16.05,44.21-17.43,54.5-5.34,39.69-2.18,79.79-8.68,119.32.81,137.05,13.46,273.48,20.18,410.18-72.71-3.05-145.37-5.65-218.18-7.85-9.47-.29-18.21-4.1-27.67-4.33-39.64-.96-291.91-.91-308.24,20.09-5.38,6.91,9.75,18.12,14.02,22.13,149.38,140.05,405.08,306.12,585.37,406.63,67.36,37.55,137.55,69.38,206.68,103.32-16.72,28.65-44.64,88.71-56,120-221.25-47.16-434.75-146.16-627.67-262.33-145.35-87.53-523.52-316.98-358-525.33,106.58-134.16,379.24-125.17,533.69-124.31-5.69-130.13-9.95-270.94,24.3-397.7,37.28-137.96,130.72-245.27,284.73-185.37,203.2,79.03,366.06,423.72,461.03,610.97,61.94,122.12,126.16,250.49,157.91,384.09Z" style="fill: #3a8e3e;"/>
  <path id="Carrot_Leaveinside" d="M2008,1760c-91.56,63.78-227.78,207.65-284,304-69.14-33.94-139.32-65.76-206.68-103.32-180.29-100.51-435.99-266.58-585.37-406.63-4.28-4.01-19.4-15.22-14.02-22.13,16.33-21,268.6-21.05,308.24-20.09,9.46.23,18.2,4.04,27.67,4.33,72.81,2.21,145.47,4.81,218.18,7.85-6.72-136.71-19.37-273.13-20.18-410.18,6.5-39.53,3.34-79.63,8.68-119.32,1.38-10.29,6.22-56.99,17.43-54.5,5.07,1.13,54.64,57.07,61.95,66.09,54.3,67.09,85.97,138.04,130.44,209.56,112.69,181.2,241.01,353.56,337.67,544.33Z" style="fill: #357938;"/>
  <g id="Carrot_Inside">
    <path d="M3016,1912c.43.32.78,6.83,3.86,9.96,31.6,32.15,34.99,73.42,4.23,108.13l-434.11,433.89c-71.12,50.92-158.31-37.05-104.07-108.07l436.19-435.81c18.11-16.24,40.01-18.51,63.58-15.76,3.36.39,29.06,6.74,30.32,7.66Z" style="fill: #f49d56;"/>
    <path d="M3342.94,2320.96c69.68-11.94,113.03,58.42,77.09,117.07l-430,430c-77.16,45.85-156.78-43.67-97.93-113.93l415.81-416.19c9.34-7.55,23.28-14.94,35.03-16.95Z" style="fill: #f49d56;"/>
    <path d="M3650.97,2816.93c70.06-11.18,113.39,74.1,66.68,126.73l-339.75,340.25c-68.95,58.78-162.53-17.97-115.63-95.64l353.64-354.35c9.22-7.4,23.5-15.14,35.06-16.99Z" style="fill: #f49d56;"/>
  </g>
</svg>