<?xml version="1.0" encoding="UTF-8"?>
<svg id="Red_Chili" data-name="Red Chili" xmlns="http://www.w3.org/2000/svg" viewBox="0 0 156.67 197.13">
  <defs>
    <style>
      .cls-1 {
        fill: #b02226;
      }

      .cls-2 {
        fill: #76231e;
      }

      .cls-3 {
        fill: #d52039;
      }

      .cls-4 {
        fill: #7b1619;
      }

      .cls-5 {
        fill: #f1e9e3;
      }

      .cls-6 {
        fill: #376030;
      }

      .cls-7 {
        fill: #2d4f28;
      }
    </style>
  </defs>
  <path class="cls-1" d="M37.55,63.38c.32-.29,1.11.39,1.27.81.32.84-.81,2.69-1.52,3.28-.47.56-1.2.98-1.82,1.32l-.16.29c-.06.12-.12.24-.2.35-.45.63-4.55,3.17-5.33,3.32-.14.03-.28.04-.42.04-.67.3-1.33.63-1.98.99.11.21,0,.37-.32.46-.32.22-1.4.77-1.66.53-.82.26-1.76.63-2.52,1.07-.49.28-.79.47-1.19.91.15.24.03.84-.25.99.2.7.53,1.36.99,1.98.5-.07,1.3,1.22.99,1.61l.32.18c.35.76.7,1.51,1.06,2.25l.6.91.27.04c.91,1.51,1.84,3.03,2.8,4.55l-.1.36.24.06c.04.48.12.79.25.93l.26.07c.03.46.08.72.24.93.1.38.27.71.5.99l.36.22c.47,1.03.93,2.04,1.39,3.03-.1.36-.03.53.19.54.64,1.33,1.21,2.72,1.71,4.17l-.18.35c.16.6.43,1.16.81,1.66-.05.5.06.9.34,1.21.31.93.59,1.83.84,2.7.04-.23.14-.22.25,0l.2.17c.34,1.36.68,2.7,1.04,4.04.18.43.34.89.5,1.36.34.11.33.27,0,.37.3.6.51,1.26.62,1.98.03-.11.08-.1.12,0,.06.4.14.73.25.99.31.14.31.23,0,.37.32.82.5,1.62.53,2.38l.21.22c.33-.76.88.71.25.99.12.75.32,1.46.61,2.14.06.66.18,1.31.36,1.93.38.81.64,1.72.43,2.62.31-.05.5.03.58.26.48.11.99,1.69.5,1.98.46,1.47.87,3,1.24,4.58l.25.38c.37-.06.56.81.25.99.33,1.25.68,2.48,1.05,3.7l.19.26c.47.17.92,1.64.5,1.98.42.71.52,1.5.51,2.35.66.95,1.13,1.9,1.21,3.06.16.05.24.15.27.29.1-.02.24-.04.27.03.23.4.74,1.55.89,1.98l-.17.22c.25.7.5,1.36.74,1.98.32-.51.58.13.48.54.47,1.06.95,2.12,1.44,3.18l-.19.24c.17.31.33.64.5.99.14.38.31.71.5.99.1.04.19.09.28.15s.16.12.21.19c1.06,1.71,2.15,3.48,3,5.28v.32c.25.21.59.7.48.99.31.49.55,1.05.72,1.68.68.28.93,1.24,1.06,1.95.41.1.69.2.88.6.32-.04.58.21.8.72.04-.33.14-.31.25,0,.63.6,1.22,1.32,1.73,1.98.78.22,1.71,1.23,1.98,1.98.27.39.6.72.99.99.26.4.61.71.99.99.34.02.32.15,0,.25l.87.74c.46-.06,1.17.51,1.11.99h.17c.21.34.47.65.82.87h.33c.55.46,1.12.91,1.7,1.32l-.05.29c.49.15.82.4.99.74.29-.28.88.42.99.74.55.51,1.18.91,1.89,1.22.44.21.71.47.83.76h.32c1.32.75,2.63,1.46,3.96,2.14.24.19.23.36-.06.46.7.26,1.36.59,1.98.99.18-.33.98.05.99.37.45.11.69.28.74.5l2.62,1.12c.3.22.67.34,1.1.37,1.01.1,2.02.36,3.02.78,1.23.26,2.37.66,3.42,1.2.56.35,1.22.52,1.98.5.37-.04.74-.08,1.11-.02,4.22.65,8.01,1.22,12.32,1.31,3.78.07,7.55-.15,11.3-.59,5.17-.6,10.46-1.5,15.49-2.38.16.02.3.09.42.2.4-.06.73-.14.99-.25l.29-.3,2.3-.6.38.16c.95-.51,1.93-.99,2.97-1.24v-.27c.65-.27,1.31-.51,1.98-.73l.06-.12c.57-.22,1.17-.42,1.8-.63.1-.43.48-.6.87-.37.87-.21.44.38-.11.59-.31.26-.6.52-.88.78-.7.51-1.43.99-2.2,1.45l-.28.41c-.12.53-.55.88-1.3,1.05-.46.5-1.06.85-1.8,1.05-.04,0-.09,0-.12,0-.11.4-.87.85-1.24.62l-.4.1c-.04-.18,0-.34.15-.47-.14-.14-.27-.2-.5,0,.38.05.75.24.25.44v.18c-.48.66-1.43,1.15-2.24,1.11-.38.04-.75.18-.99.5-.64.62-1.57,1.08-2.48.99-.5.18-.92.18-1.24,0-.31.4-.72.65-1.24.74-.56.2-1.28.33-1.73,0-.22-.24-.2-.2.07.12.44-.04.92.01.43.37-.7.11-1.43.24-2.1.43-.87.24-1.76.53-2.6.81-.1.09-.21.17-.32.24s-.22.13-.34.16c-2.36.49-4.73.93-7.14,1.06-.26-.02-.51-.09-.74-.21-1.32.06-9.16.37-9.47,0-.16-.19-.06-.45.18-.49-.35-.17-.99-.21-1.9-.12l-.08-.12c-.55-.14-1.26-.19-2.13-.16-.17-.1-.06-.3.15-.34-.01.06-.03.12-.06.17-.14.23-2.88,0-3.16-.17.37.15.83.19,1.38.12.18.1.12.71,0,.75-.24.08-1.33-.06-.89-.38,0,.06-.02.12-.06.17-.06.08-1.65-.11-1.92-.17-.38-.14-.92-.23-1.61-.25-.36.36-1.35.18-1.61-.25-.24-.16-.54-.23-.91-.2-1.12-.29-2.21-.56-3.3-.79-1.28-.29-2.61-.62-3.96-.99-.51.06-1.28-.08-1.83-.22-.81-.2-3.89-1.09-4.3-1.52-.07-.07-.13-.16-.18-.24-.36-.29-.79-.44-1.24-.5-.24.29-.81.16-.74-.25-.41-.21-.82-.38-1.24-.5-.72.1-1.41-.17-1.86-.74-.69-.46-1.44-.79-2.23-.99-.81.05-1.74-.34-2.23-.99-.21-.29-.54-.45-.99-.5-1.14-.18-2.15-.68-2.97-1.49-.41-.36-1.09-.87-1.73-.99-.76.02-1.55-.36-1.98-.99-.43-.27-.88-.52-1.36-.74-.02.11-.07.11-.12,0-.03-.13-.16-.21-.37-.25-.76.08-1.65-.49-2.13-1.07-.46-.08-.83-.19-.97-.67-.22-.29-.56-.46-.99-.5-.26.27-.9-.15-.74-.5-.37-.34-.75-.61-1.24-.62-.21.17-.28.1-.12-.12.04-.08-.08-.17-.37-.25-.15.22-.37.22-.67,0l-1.61-.94-.07-.3c-.85-.43-1.68-.89-2.51-1.38l-.09-.23c-.36,0-.39-.02-.5-.37-.04,0-.08,0-.12,0-.27-.09-.31-.17-.12-.25-.12-.09-.24-.18-.37-.25-.34.29-1.08-.22-1.11-.62-.46-.18-.71-.38-.74-.62-.12-.12-.28-.2-.5-.25-.11-.02-.11-.07,0-.12-.29-.35-.54-.51-.99-.62-.75-.04-1.59-.67-1.98-1.29-.73-.21-1.62-.71-1.86-1.44-.25.16-.55-.23-.5-.5-.16-.28-.47-.63-.87-.74-.32.12-.4.06-.25-.25-.02-.25-.19-.38-.5-.37-1.26-.58-2.5-1.66-3.22-2.85l-.07-.25c-.66-.51-1.3-1.05-1.92-1.6l-.41-.18c-2.52-2.42-4.87-5.21-7.02-7.88-.62-.27-.97-1.05-1.16-1.69-.6-.43-1.29-1.12-1.31-1.9-.1-.4-.23-.69-.62-.87-.72-.36-1.24-1.34-1.36-2.11-.08-.66-.18-.79-.74-1.11-.31-.72-.73-1.38-1.24-1.98-.16-.47-.41-.88-.74-1.24l-.39-.34c-1.03-1.76-2.02-3.52-2.98-5.29-.33-.08-.26-.45-.1-.68-.12-.05-.14-.2,0-.25-.39-.81-.8-1.64-1.24-2.48-.74-.52-1.04-1.42-1.21-2.28-.45-.51-.83-.96-.77-1.68-.12-.12-.2-.29-.25-.5,0-.04,0-.08,0-.12-.43-.65-.76-1.35-.99-2.11-.37-.06-.54-.74-.45-1.05-.42-.58-.6-1.1-.54-1.55-.12-.73-.45-1.54-.87-2.11-.04.11-.08.11-.12,0,0-.04,0-.08,0-.12l-.26-.08c-.1-.64-.31-1.26-.62-1.88-.35-.25-.58-.94-.36-1.27l-.25-.5c-.11-.04-.11-.08,0-.12-.05-.39-.17-.72-.37-.99-.42-.32-.7-1.04-.74-1.61-.34.12-.5-.5-.42-.75-.46-.85-.77-1.76-.94-2.72-.35-.1-.68-1.12-.37-1.36-.09-.43-.08-.85.02-1.27-.3-.01-.48-.06-.64-.34l-.28-.3c-.52-1.29-1.01-2.62-1.49-3.97-.11-.75-.32-1.5-.62-2.24-.23-.58-.39-1.29-.33-1.91-.06-.08-.12-.16-.15-.26-.3-.88-.49-1.58-.69-2.55-.28-1.38-.56-2.87-.52-4.27-.37-1.64-.48-3.36-.5-5.05-.09-6.67.79-13.73,5.02-19.15.06-.08.15-.13.25-.18s.21-.09.32-.13c.23-.15.44-.19.62-.12l.16.23c-.59.89.19,1.46,1,1.67l2.06.47c.16.03.15.18.11.35.2.01.33.08.14.14,3.04.29,6.31.54,9.34-.23l.93-.03c-.17,0-.14-.05.11-.13v-.32c3.16-.69,6.33-1.58,9.27-2.98l.4.08c.43-.18.87-.34,1.31-.49.11-.34.39-.56.84-.65l.45-.35-.15-.26c1.11-.65,2.15-1.39,3.12-2.21.02-.16.34-.3.5-.25.14-.35.44-.56.8-.67.12-.33.31-.44.56-.32-.07-.15-.06-.28.12-.25.51-.62.59-1.11.25-1.49-.21-.15-.21-.23,0-.25Z"/>
  <path class="cls-7" d="M38.54.7l.55-.12c1.18-.73,2.9-.88,3.93.21l.47.16c.41-.24.74.45.74.74.49.84.71,1.53.25,2.48.25.29-.2.69-.5.5-.38.05-.71.22-.99.5.04.37-.22.51-.5.25-.53.06-1.03.22-1.49.5-.95.1-1.82.35-2.6.74-.5.43-1.17.63-2,.6-1.16.43-2.34.77-3.56,1.02-.55.43-1.13.63-1.75.61-.57.16-1.34.63-1.87.99-.01,0,0,.05.03.11-.52.27-.98.6-1.38,1,.22.33-.04.55-.37.37-.31.1-.5.17-.62.5.03.12,0,.16-.12.12-.19.06-.3.19-.37.37.2.27-.25.59-.5.37-.12.04-.2.13-.25.25.09.19-.03.32-.37.37-.19.06-.3.19-.37.37-.14.59-.98,1.41-1.61,1.61l-.32.19c-.77,1.11-1.62,2.14-2.54,3.1l-.36.67c.26.25,0,.88-.37.74-.1.15-.25.32-.37.5,0,.12-.08.25-.25.37.1.31-.15.73-.5.62.01.34-.2.86-.62.87-.25.18-.44.52-.58,1.04l-.32.18c-.47.82-.92,1.61-1.33,2.38-.32.69-.56,1.44-.72,2.26l-.27.22c-2.56,10.59.3,21.64,6.46,30.55,1.02,2.66,3.39,3.61,5.96,4.46,1.96.65,4.06,1.13,6.05,1.52.28.26.65.35,1.11.29.22.28.52.43.93.44l.07.28c.29.07.29.2,0,.37-.08.11-.25.19-.5.25.13.3.05.38-.25.25-.27.14-.52.31-.74.5-.17.1-.33.18-.5.25-.23.18-.48.35-.74.5-.07.24-.18.24-.25,0-.15.2-.55.45-.74.25l-.03.13c-.4.03-.65.12-.96.37-.36.33-.69.47-1,.43l-.24.06-.14.13c-.48-.11-.75.08-1.1.36,0,.22-.18.3-.53.24-.06.18-.21.18-.46.01-.29.08-.58.2-.86.35l-.13-.1-.08.13c-.62,0-1.1.09-1.65.36-.02.08-.11.08-.25,0-.13.19-.38.28-.74.25-.1.34-.37.33-.5,0-.18.1-.34.18-.5.25-.17.2-.38.37-.62.51l-1.61-.04c-1.29.58-2.42.65-3.8.49-.05.19-.19.3-.38.29l-2.29-.04c-.03.08-.11.21-.19.22-.87.12-1.98.21-2.85.06-.35-.06-1.04-.18-1.13-.5-.14-.07-.3-.15-.5-.25-.25-.04-.5-.13-.74-.25-.29-.12-.46-.45-.5-.99-.19-.07-.18-.17,0-.25-.37-.17-.29-.58.25-1.24l-.16-.1c.15-.16.24-.34.28-.52,0-.4.19-.77.56-1.12.16-.51.43-.83.8-.98.39-.77.85-1.44,1.38-2.03,0-.49.21-.7.6-.94.16-.91.6-1.6,1.12-2.35.27-.93.6-1.78.98-2.56.32-2.68.19-5.41-.12-8.1,0-.04,0-.08,0-.12l-.25-.18c-.26-1.73-.48-3.49-.66-5.26l-.19-.12c-.29-1.59-.51-3.31-.69-4.77-.1-.64-.17-1.29-.2-1.94,0-.04,0-.08,0-.12,0-.22-.04-.42-.12-.62-.01-.12.01-.25,0-.37-.23-.38-.36-.84-.41-1.38-.13-1.43-.29-2.83-.48-4.22.21-.71.13-1.65-.04-2.37.01-.73.13-1.89.24-2.62.15-.99.32-1.8.66-2.77.03-.08.09-.14.16-.21s.16-.13.25-.18c.23-.27.42-.5.37-.87-.18-.18-.13-.28.12-.25.37-.26.57-.59.62-.99.35-1.46,1.59-2.77,2.63-3.83.52-.82,1.23-1.59,2.03-2.13.53-.8,1.35-1.64,2.27-1.97.48-.06.65-.35.88-.73.41-.1.74-.35.98-.75.02-.16.05-.33.15-.46.22-.27.65-.63.94-.87.31-.26.76-.6,1.14-.66.04-.2.24-.36.62-.5-.06-.48.67-.91,1.11-.74.28-.14.53-.31.74-.5.27-.72,1.34-1.6,2.11-1.73-.08-.13.04-.21.37-.25-.08-.37.16-.56.5-.37.03-.22.2-.35.5-.37-.1-.39.7-.74.99-.5.65-.3,1.23-.67,1.73-1.11.1-.48.51-.74.99-.62.6-.25,1.18-.58,1.73-.99.14-.41.55-.67,1.23-.77,0-.39,1.65-.93,1.84-.85.06.03.11.08.16.13Z"/>
  <path class="cls-3" d="M48.2,64.37c.05.15.18.23.37.25,1.18.91,3.31,2.85,3.84,4.21.14.39.31.64.5.74.15.23.36.41.5.62.12.31.29.6.5.87.7,1.49,1.19,2.92,1.73,4.46,0,.95.25,1.69.74,2.23.3,1.03.64,2.04.87,3.1,0,.66.14,1.25.37,1.86,0,.08,0,.17,0,.25.09.5.1,1,.04,1.49l.18.08c.16.89.32,1.78.47,2.65-.36.38-.37.86-.29,1.38l-.15.09c-.11.2-.46.34-.5,0-.31.23-.31.4,0,.5l.11.02c-.03-.23.1-.4.39-.52-.02-.11.02-.22.13-.33-.08-.77.03-.97.61-.41.26,1.48.6,2.96.74,4.46l.13,1.27c.3.79.32,1.66.05,2.6.52-.86.68.5.68,1.07l.13.02c.05-.04.09,0,.12.12,0,.59.17,1.18.29,1.76.84,4.34,2.07,8.98,3.31,13.23.07.62.21,1.17.5,1.73.2.19,1.56,4.57,1.73,5.2.13.78.3,1.28.5,1.49.19.13.92,2.35.99,2.73.26.54.44,1.1.54,1.68.23-.1.27.26.26.48l.44.81c.24.58.49,1.16.74,1.73.31.83.63,1.68.96,2.53.11-.13.22.06.28.19.28.41.53.86.74,1.36.17.4.31.85.5,1.24.29.85.7,1.63,1.24,2.35.43.54.66,1.26.99,1.86.09.54.4.96.74,1.36.91.91,2.03,3.25,2.85,4.46.22.71.76,1.52,1.36,1.98.82,1.13,1.85,2.52,2.73,3.59.16.33.41.69.74.87.85,1.01,1.81,2.01,2.73,2.97.2.4.18.64-.06.72.26-.08.49-.08.68.02.04.04.08.08.12.12.14.17.1.26-.08.36.33.34.73.6,1.19.76,1.04,1,2.47,2.33,3.59,3.22.21.23.43.46.66.67l-.16.07c-.56.3.82.96.93.56.83.57,1.59,1.16,2.29,1.79,1.11.74,2.26,1.45,3.47,2.11.08,0,.17,0,.25,0,.19.06.27.14.25.25.09.06.17.15.25.25.1.23.32.35.66.38.32.24.52.61.59,1.12.47.07.96.2,1.47.36,0-.27.53-.13.99.12,1.6.79,3.3,1.56,4.95,2.23.21.05.22.16.17.33.27-.03.65-.03.82.16.42.09.83.28,1.23.56l1.13.18c.12.04.25.08.37.12.03.08.16.12.37.12.28.09.58.16.87.25.18.3.43.37.74.23l.22.2c.73.09,1.48.28,2.25.57l.15.05c.93.16,1,.3.22.44.09.17-.51.16-.48.16.67-.11,1.31-.09,1.94.04.09.32.69.2.89.05.17-.12.41-.12.74,0,1.81.17,3.89.89,5.7,1.24.11.24.4.28.87.12,2.28.43,4.75.91,7.06,1.11.58.28,1.09.34,1.53.19l3.59.27.33.28c.22-.01.33.2.17.34-.43.39-3.46.21-4.14-.09-.68.06-1.34.14-1.98.25.27.19,1.4.17,2.09-.01,1.22.09,2.43.1,3.64.04l.33-.27c.71.03,1.33.03,1.86,0v-.26c.6-.09,1.19-.18,1.77-.27-.06-.38.06-.55.37-.49l1.52.05c.05-.12.15-.2.3-.26v-.17c.67-.22,1.32-.41,1.98-.58.24-.11.63-.27.74,0,.34.19.81-.18.94-.41l.3-.09.06-.18c.44-.1.71-.19.93-.57,2.08-1.05,4.01-2.98,5.7-4.58.24-.24.27-.21.25.12.06.12.14.12.25,0,.23-.21.36-.33.5,0,.09.03.36.29.38.33.1.22.03,1.91-.13,2.14.1.29.18.62.25.99.29.23.26.61.02.87l-.27,1.11s0,.08,0,.12c-.24.35-.4.72-.5,1.11-.19.4-.34.58-.5.87-.4.46-.76,1.15-.99,1.73-.33.52-1.94,2.81-1.98,3.1-.39.05-.63.7-.93,1-.11.11-.24.17-.31.24-.09.21-.26.43-.5.5-.15.19-.34.35-.57.49-.4.8-.58.8-.92,0q-.33-.18,0,0c.09.26.25.47.47.61l-.23.38c-.08.08-.16.16-.25.25-.27.09-.4.23-.5.5-.12.11-.26.27-.37.37-.24.04-.48.17-.72.37-.02-.18-.15-.22-.4-.12-.3.12-.57.24-.87.37-.72.23-1.34.47-1.86.74-.02.04.03.15-.03.21-.13.11-1.63.63-1.95.78-1.05.26-2.02.74-2.97,1.24-1.02.26-1.9.59-2.97.74-.28.1-.61.19-.99.25-.89.09-1.8.33-2.68.48-3.23.56-6.63.99-10.01,1.51-9.18,1.42-18.79,1.51-27.95-.51-.77.02-1.43-.15-1.98-.5-2.22-.54-4.43-1.21-6.44-1.98-.73-.16-1.45-.44-2.15-.84-.54-.16-.98-.37-1.32-.65-.28-.17-.61-.34-.99-.5-.39-.06-.64-.26-.99-.37-.64-.4-1.3-.73-1.98-.99-.02-.05.04-.15-.02-.22-.02-.03-.59-.31-.7-.36-1.19-.55-2.34-1.28-3.49-2.01-.53-.63-1.3-1.07-2.1-1.41-.19-.21-.4-.4-.62-.57-.46-.11-.8-.61-.99-.74-.19-.35-.52-.59-.99-.74-.06-.06-.47-.42-.5-.43-.48-.25-1.06-.68-1.48-1.18l-.99-.87c-.36-.35-.77-.64-1.11-.99l-.87-.74c-.02-.07.02-.18,0-.25-.38-.26-.76-.59-.99-.99-.34-.22-.77-.64-.99-.99-.68-.58-1.3-1.32-1.98-1.98-.53-.69-1.1-1.35-1.73-1.98-.08-.01-.17,0-.25,0-.69-.89-1.41-1.82-2.14-2.79-.16-.23-.28-.42-.09-.68-.31-.47-.58-.95-.81-1.46-.3-.19-.61-.53-.92-1.02-1.05-1.95-2.4-4.12-3.47-5.95l-.27-.1c.04-.34-.04-.6-.22-.89-.18-.32-.34-.65-.5-.99-.25-1.03-1.3-2.51-1.48-3.31-.11-.47.23-.58-.25-.66-.29-.75-.53-1.41-.74-1.98-.11-.2-.97-2.11-.99-2.23-.26-.29-.39-.69-.4-1.2-.54-1.5-1.07-3-1.58-4.49-.07-.85-.29-1.22-.5-1.98-.2-.24-.61-.94-.38-1.13-.36-.92-.65-1.87-.86-2.84-.03-.04-.21-.84-.25-.99l-.25-.38c-.37-1.65-.79-3.18-1.24-4.57-.05-1.04-.25-1.1-.5-1.98l-.29-.43c-.59-2.16-1.2-4.38-1.69-6.5,0-.27.06-.7,0-.91-.03-.13-.24-.07-.25-.08-.13.02-.23-.02-.27-.14,0-.84-.1-1.7-.47-2.46-.02-.12.01-.25,0-.37-.11-.28-.19-.61-.25-.99-.02-.02-.11.02-.12,0-.11-.72-.32-1.38-.62-1.98-.02-.11.02-.26,0-.37-.19-.35-.38-.9-.25-1.24-.56-1.28-1.06-2.7-1.24-4.09-.15.03-.21-.09-.24-.24-.08,0-.17,0-.25,0-.25-.55-.37-1.19-.48-1.83-.34-.6-.69-1.32-.68-2.06-.37-.52-.64-1.09-.81-1.69-.21-1.23-.91-2.4-1.39-3.5-.09-.22-.12-.63-.21-.76-.1-.14-.36,0-.39-.14-.06-.21.06-.57,0-.83-.02-.08-.18-.09-.19-.13-.39-1.07-.84-1.85-1.29-2.93l-.24-.07c-.01-.33-.1-.63-.25-.92l-.11-.02c-.03-.4-.16-.73-.39-.97l-.13-.07c-.01-.41-.08-.65-.36-.92-.46-.99-1.31-2.16-1.91-3.11-.25-.4-1-1.53-1.07-1.84-.57-.88-1.07-1.79-1.48-2.73.05-.21-.11-.42-.5-.61-.11-.37-.69-1.28-.99-1.61-.47-.62-.8-1.28-.99-1.98.01-.22-.02-.41.03-.65.03-.14.16-.23.22-.34.27-.22.56-.46.69-.79.63-.24,1.28-.49,1.95-.74.24-.28.6-.43,1.08-.45.31-.16,1.9-.89,1.98-.99.66-.36,1.32-.69,1.98-.99,2.14-1.19,4.07-2.36,5.95-3.72l.07-.25c.49-.32,1-.64,1.54-.96l.37-.4c.76-.63,2.12-2.83,1.29-3.65-.49-.3-1-.62-1.53-.93-.03.25-.15.23-.25,0-.07.24-.18.24-.25,0-.38-.08-1.29-.83-1.24-1.24-.17-.05-.33-.13-.5-.25-.21.29-.57.08-.5-.25l-.34-.32c-.41-.05-.71-.19-.9-.43,5.61.53,10.36.52,15.11,3.96Z"/>
  <path class="cls-4" d="M35.81,66.1c.25,0,.17.09,0,.25-.16.08-.06.19-.5.25-.09.63-.2.33-.45.54-.42.37-1.47,1.28-1.88,1.52s-.47-.01-.64.41c-.28.28-.62.47-1.02.58l-.12.29c-.48.24-.97.45-1.46.61-2.39,1.21-6.61,2.59-9.2,3-.19.03-.33.07-.46.22-.66.14-1.44.27-2.16.37-2.53.36-5.53.46-8.06.02-.11-.02-.21-.08-.31-.15-.27-.37-2.85-.33-3.46-1.33-.34-.56-.16-.82.12-1.39-.05-.06-.08-.11-.1-.18-.03-.18,1.5-1.64,1.77-1.85.03-.02.1,0,.18.05.18.4-.23.51-.24.58-.05.18,0,.45,0,.66-.22.45-.28.51-.16.19l.16.06.1.2c0,.53.01.59.39.79.32.08.57.24.74.5.07-.18.39-.18.5,0,.66.04.93.23,1.17.26.5.07,2.11.06,2.62,0,.24-.03.12-.24.35-.27.77-.1,1.75.09,2.55,0l-.25-.25c.75-.12,1.96.16,2.64,0,.22-.05,1.19-.44,1.41-.49.5-.12,1.35.08,1.9,0l-.25-.25c.25-.01.5.01.74,0,.18-.1.35-.18.5-.25.11,0,.47-.02.5,0,.23.07.78.04.74-.25.08,0,.17,0,.25,0,.51-.27,1.25-.5,1.73-.25.15-.43,1.41-.39,1-.36v-.14s.16,0,.16,0c.15-.4.47-.21.83-.24.36-.32.7-.46,1.01-.43l.23-.07.1-.13c.5.1.78-.06,1.14-.37.18-.26.75-.45.99-.25.22-.16.46-.32.74-.5.08,0,.17,0,.25,0,.23-.18.47-.35.74-.5.32-.08.57-.17.74-.25-.14-.23.28-.43.5-.5.07-.09.18-.16.25-.25.05-.21.37-.17.5,0-.33-.04-.3-.11,0-.25.06-.27.26-.5.5-.25Z"/>
  <path class="cls-2" d="M36.81,62.88c.2.26.45.51.74.74.33.36.25.86-.25,1.49-.05.07-.07.19-.12.25-.23.09-.36,0-.41-.29.17.51-.4,1.04-.7.54-.25,0-.15-.09,0-.25.05-.22.13-.38.25-.5-.1-.14-.1-.33,0-.57v-1.18s.24-.23.24-.23c.08,0,.17,0,.25,0Z"/>
  <path class="cls-6" d="M14.76,28.45c.11.13.21.28.2.46-.07,1.14-.09,2.29-.07,3.43,0,.03.05.05.12.08,0,.12,0,.25,0,.37,0,.91.13,1.77.37,2.6.54,3.2,1.52,6.48,2.6,9.54.09.49.3.95.62,1.36,0,.04,0,.08,0,.12.19.59.48,1.13.87,1.61.6,1.16,1.26,2.26,1.98,3.34l.32.7c.34.21.64.55.91,1.04.2.31.44.56.74.74.6.61,1.5,1.45,1.98,2.11.38.39.79.72,1.24.99.07.07.24.23.25.25l.5.37c.11.08.2.09.25.12.32.4.79.65,1.24.87.11.07.58.36.62.37.44.54.98.85,1.62.94l.73.3c.37.08.55.2.99.25.59.18,1.08.42,1.49.74.11.04.42.19.5.25.17.05.33.13.5.25.3.22,1.2.89,1.24,1.24.04.37.05,1.18,0,1.54-.05.29-.22.38-.24.44-.07.14-.15.3-.25.5-.14.28-.39.75-.74.62-.26-.09-.59-.1-.84-.21-.15-.07-.14-.26-.24-.28-.29-.06-.88.16-.9.12-.04-.05.09-.32-.08-.38-.09-.03-.3.02-.45-.02-3.04-.82-8.83-1.84-10.82-4.35-.4-.5-.73-1.35-1.09-1.89-5.83-8.68-8.8-18.75-6.61-29.31.08-.36.22-.93.46-1.21Z"/>
  <path class="cls-5" d="M51.42,80.72l.24.12c-.22.84.6,1.58,1.44,1.35.28.14.37.43.29.85.32.46.52.95.61,1.49.34-.14.55-.09.64.15.59,1.67.81,3.36.65,5.09.19.41.25.91.17,1.48.14-.14.29-.25.47-.11.2.16.14,2.15-.31,2.37-.07.38-.15.74-.24,1.08.34.65.47,1.24.41,1.76l.09.22c.15.59.19,1.23.12,1.91-.02-.16.03-.12.12.07l.15.36c.01-.23.11-.33.35-.23.2.92.28,1.9.25,2.92l-.25.18c0-.36.27-.3.44-.02.11.92.33,1.83.55,2.75,0,.04,0,.08,0,.12l.18,1.35c-.25.56-.32,1.23-.21,2,.14.57.18,1.15.14,1.74l.14-.02c0-.36.41-.35.5,0,.26-.09.32.05.12.25-.04.11-.08.11-.12,0-.15.13-.15.29,0,.5.03-.25.15-.23.25,0,.31.1.5.36.5.74.27.14.5.61.25.87l.12.38c-.06.47.06.8.37.98.13.08.21.25.25.5.58,1.67,1.25,2.89,1.98,4.46.07.5.23.95.5,1.36.02.24.03.63,0,.87-.19.24-.36.53-.5.87-.28.78-1.27,1.37-2.05,1.42-.19.01-.37,0-.55-.06-.45-.1-.86-.26-1.24-.5-.04,0-.09.01-.12,0l-.5-.62c-.09-.13-.16-.24-.25-.37-.04-.2-.13-.36-.25-.5-.31-.53-.74-1.18-.99-1.73-.32.09-.72-1.18-.5-1.36-.08-.49-.25-.86-.5-1.11-.31-.05-.47-.38-.5-.99-1.18-3.28-1.85-6.74-2.48-10.16-.16-.48-.21-.98-.25-1.49,0-.02-.09-.11-.12-.25-.02-.59.33-.96.63-.28v-.74c-.26-.18-.36-.49-.29-.91-.22.1-.38.09-.47-.05-.17-.18-.25-2.08-.17-2.15.05-.04.1-.06.17-.08-.07.47-.37.21-.38-.2.05-.39.01-.65-.12-.79-.09-.03-.08-.07,0-.12-.07-1.68-.18-3.35-.33-5.01l-.17-.07c-.12-.05-.08-.14,0-.25.1-.76.02-1.5-.25-2.23-.27.13-.35-.07-.25-.62-.2-.83-.37-2.1-.5-2.97v-.12c.14-.3.22-.66.28-.97-.29-.19-.4-.43-.33-.7-.46-.01-.93-.52-.44-.81-.06-.02-.11-.04-.12-.06-.07-.69-.17-1.92.12-2.42.18-.15.46-.23.83-.25l-.09-.25c-.85-.1.24-.75.74-.5.16.09.32-.07.5-.5-.03-.25.19-.23.25,0Z"/>
  <path class="cls-5" d="M45.23,70.32c.1.63,1.13.61,1.65.49.1-.02.08-.33.33-.25.24.07.24.18,0,.25.15.18.19.47.12.86.34.88,1.11,1.26,2.08.89.18.8.23,1.61.15,2.45,0,.03.12.13.11.19-.01.06-.16.03-.22.16-.04.09.01.25-.05.35-.31.49-1.3.1-1.07.78l-.37.25c-.07.02-.17,0-.25,0-.42-1.58-.84-.31-1.08-.25-.17.04-.58-.14-.65-.25-.18-.28.75-.53.49-.74-.31-.24-.76.54-1.12.31-.38-.24.4-.46.12-.81-.21-.26-.3.52-.49.25-.03-.04.04-.28,0-.41-.04-.12-.25-.08-.25-.15,0-.17.17-.26.22-.41s0-.32.03-.4c.02-.06.26-.06.25-.56,0-.45-.04-.3-.5-.31-.13-.34.25-.23.25-.25v-1.98s-.68.15-.5-.25c.47.13.42-.21.74-.25Z"/>
</svg>