<?xml version="1.0" encoding="UTF-8"?>
<svg id="Layer_1" data-name="Layer 1" xmlns="http://www.w3.org/2000/svg" viewBox="0 0 700 700">
  <path d="M700,0v700H0V0h700ZM506,234c1.34-3.66,6.07-5.34,9.2-8.06,6.54-5.66,23.16-22.84,24.58-30.7s-1.89-7.75-8.3-8.23c-13.64-1.03-29.78,2.36-42.87,6.1-.9.26-2.03,2.12-1.56-.55,3.27-18.52,33.02-31.93,42.32-49.69,5.14-9.81,6.94-20.09,10.6-30.4,4.23-11.88,12.08-18.33,5.07-32.03-2.65-5.18-11.76-11.99-17.55-12.5-10.65-.93-36.95,15.23-46.8,21.25-33.78,20.67-47.66,33.27-63.34,69.66-1.47,3.41-1.93,5.96-6.36,5.14-4.3-4.11,24-73.5-10.48-46.98-10.1,7.77-20.08,20.77-27.54,30.98-1.31.88-5.31-11.84-6.11-13.37-2.75-5.28-7.03-11-13.86-8.1-6.48,2.76-22.01,45.26-27.82,54.17-2.23,3.43-2.94,2.91-4.95-.45-10.46-17.49-14.13-67.16-30.21-78.79-4.48-3.24-7.14-3.77-10.23.85-8.02,11.99-10.9,30.08-12.85,44.16-.14,1,.7,3.41-1.44,2.52-11.04-4.61-18.43-43.31-25-55.01-6.21-11.06-14.06-15.29-22.53-23.47-5.33-5.15-13.29-16-18.94-19.06-12.25-6.65-31.31.54-33.08,15.03-.85,6.98-.33,19.65.03,27.01,1.5,30.33,8.92,67.51,28.03,91.74,2.9,3.67,15.77,14.24,14.91,18.2-.18.83-1.43,1.6-2.44,1.59-5.65-.08-28.68-24.19-40.28-25.83-8.31-1.17-6.95,5.47-6.22,12.3,1.14,10.71,12.22,32.32,17.47,42.53,2.81,5.46,12.46,19.06,13.34,23.73.76,4.02-2.05,9.84-1.89,14.75.15,4.39,2.21,8.3,3.06,12.49-14.98-4.13-31.93-5.75-47.53-5.04-13.16.6-37.44,2.67-49.69,6.31-5.61,1.67-10.85,5.1-13.63,10.37-5.11,9.68-3.74,21.99,4.84,28.89,4.98,4,11.89,6.77,17.35,10.64,12.18,8.65,20.63,18.35,36.41,21.59,11.11,2.28,24.47,1.54,35.49,4.51,1.93.52,14.02,5.87,14.76,6.75,1.32,1.55-.36,1.72-1.26,2.21-3.18,1.75-8.02,2.15-11.42,3.57-5.2,2.18-32.15,16.41-32.11,21.49.08,11.1,30.11,14.9,38.43,16.58l38.38,3.12c.98,1.64,5.91,8.75,7,10-9.83,6.59-19.54,13.37-28.96,20.56-2.32,1.77-1.52,4.6-6.05,3.44l1.02,1.97c-4.89.3-10.75,7.31-9.85,12.28,1.69,9.4,25.92,9.96,33.34,10.8l20.5-1.06c-4,50.96,49.12,83.64,93.32,57.82,1.89-1.1,9.14-7.95,10.66-6.82,10.94,24.34,40.03,37.01,66.01,31.99,2.05,46.81,52.53,72.48,92.99,50.01,4.76,16.81,18.19,32.47,34.33,39.18,34.35,14.29,71.68-3.78,82.88-38.57,1.06-3.3,2.73-11.3,2.83-15.06.6-22.67-11.8-45.43-32.03-55.56-.47-.7,7.27-10.48,8.54-12.94,9.34-18.22,8.78-41.64-1.51-59.31-.71-1.23-2.77-1.33-3.46-2.68-.36-.71.49-1.98-.48-3.55-1.79-2.89-12-11.79-15.19-13.91-5.25-3.48-11.22-5.57-16.92-8.09,3.32-1.19,6.61-2.55,9.68-4.33,14.79-8.59,27.26-25.93,30.08-42.92,5.45-32.9-16.01-64.22-48.75-70.25,5.41-14.27,7.37-30.5,1.49-44.98-7.46-18.38-25.34-38.22-47.49-40.01Z" style="fill: #fefefd;"/>
  <g>
    <g>
      <path d="M222,416l-38.38-3.12c-8.32-1.68-38.35-5.47-38.43-16.58-.04-5.08,26.91-19.32,32.11-21.49,3.4-1.42,8.24-1.83,11.42-3.57.9-.5,2.58-.66,1.26-2.21-.74-.87-12.84-6.23-14.76-6.75-11.02-2.97-24.38-2.23-35.49-4.51-15.78-3.24-24.22-12.95-36.41-21.59-5.46-3.88-12.37-6.64-17.35-10.64-8.58-6.89-9.95-19.2-4.84-28.89,2.78-5.27,8.02-8.7,13.63-10.37,12.25-3.65,36.53-5.71,49.69-6.31,15.6-.71,32.55.91,47.53,5.04-.84-4.19-2.91-8.11-3.06-12.49-.17-4.91,2.64-10.73,1.89-14.75-.88-4.67-10.53-18.27-13.34-23.73-5.25-10.22-16.32-31.82-17.47-42.53-.73-6.83-2.09-13.47,6.22-12.3,11.6,1.64,34.63,25.74,40.28,25.83,1.01.01,2.26-.75,2.44-1.59.85-3.96-12.01-14.53-14.91-18.2-19.11-24.23-26.53-61.41-28.03-91.74-.36-7.36-.89-20.03-.03-27.01,1.77-14.49,20.83-21.68,33.08-15.03,5.64,3.06,13.6,13.92,18.94,19.06,8.48,8.18,16.32,12.41,22.53,23.47,6.57,11.69,13.95,50.4,25,55.01,2.14.89,1.3-1.52,1.44-2.52,1.95-14.08,4.83-32.18,12.85-44.16,3.09-4.62,5.75-4.09,10.23-.85,16.08,11.63,19.76,61.3,30.21,78.79,2.01,3.36,2.72,3.88,4.95.45,5.81-8.92,21.33-51.41,27.82-54.17,6.83-2.91,11.11,2.82,13.86,8.1.8,1.54,4.8,14.26,6.11,13.37,7.46-10.21,17.43-23.21,27.54-30.98,34.48-26.52,6.19,42.88,10.48,46.98,4.43.82,4.89-1.73,6.36-5.14,15.68-36.4,29.55-48.99,63.34-69.66,9.84-6.02,36.15-22.18,46.8-21.25,5.79.51,14.9,7.32,17.55,12.5,7.01,13.7-.84,20.14-5.07,32.03-3.67,10.3-5.47,20.59-10.6,30.4-9.3,17.76-39.05,31.17-42.32,49.69-.47,2.68.66.81,1.56.55,13.09-3.75,29.22-7.14,42.87-6.1,6.42.49,9.67.69,8.3,8.23s-18.04,25.03-24.58,30.7c-3.13,2.72-7.86,4.4-9.2,8.06-7.37-.6-22.26-.55-29.3,1.02-.83.19-.7,1.74-1.94,2.27-2.51,1.07-18.05,8.45-18.75,7.71-.4-9.66-6.13-21.73-11.71-29.72-.61-.87-4.59-6.12-4.92-6.37-.78-.59-2.84-.44-3.25-1.05-.6-.89.24-3.49-.13-3.85-.32-.32-2.65.44-3.77-.21-.47-.27-.91-2.29-2.25-3.25-11.07-7.89-31.2-12.38-44.54-10.63-1.84.24-1.27,1.82-2.14,2.04-13.28,3.34-21.98,5.86-31.94,16.39-10.71,11.32-16.98,26.86-16.49,42.51-4.17,2.46-10.14.19-14.17,1.16-.89.22-9.42,3.62-11.6,4.55-25.02,10.59-39.33,39.73-34.52,66.46-5.81,1.39-12.02,1.5-17.77,3.27-36.9,11.35-54.86,56.06-34.79,89.71Z" style="fill: #a3c852;"/>
      <path d="M229,426c5.83,6.68,15.67,10.31,21.92,16.57.66,1.62-4.02,6.52-5.13,8.72-3.33,6.58-6.21,15.38-6.79,22.71l-20.5,1.06c-7.42-.84-31.65-1.4-33.34-10.8-.9-4.97,4.97-11.98,9.85-12.28l-1.02-1.97c4.53,1.16,3.73-1.67,6.05-3.44,9.41-7.19,19.13-13.98,28.96-20.56Z" style="fill: #a3c852;"/>
    </g>
    <g>
      <path d="M222,416c-20.06-33.65-2.11-78.36,34.79-89.71,5.75-1.77,11.96-1.87,17.77-3.27-4.82-26.73,9.5-55.87,34.52-66.46,2.18-.92,10.71-4.33,11.6-4.55,4.03-.98,10,1.29,14.17-1.16-.49-15.65,5.78-31.19,16.49-42.51,9.96-10.53,18.66-13.05,31.94-16.39.87-.22.3-1.8,2.14-2.04,13.34-1.75,33.47,2.73,44.54,10.63,1.34.95,1.78,2.97,2.25,3.25,1.12.65,3.45-.1,3.77.21.37.36-.47,2.96.13,3.85.4.61,2.47.46,3.25,1.05.33.25,4.32,5.5,4.92,6.37,5.58,8,11.31,20.06,11.71,29.72.7.74,16.24-6.64,18.75-7.71,1.24-.53,1.11-2.08,1.94-2.27,7.04-1.57,21.93-1.62,29.3-1.02,22.15,1.8,40.03,21.63,47.49,40.01,5.88,14.49,3.92,30.71-1.49,44.98,32.74,6.03,54.2,37.36,48.75,70.25-2.81,16.99-15.28,34.33-30.08,42.92-3.07,1.78-6.36,3.14-9.68,4.33,5.7,2.52,11.66,4.61,16.92,8.09,3.19,2.11,13.4,11.02,15.19,13.91.97,1.57.12,2.85.48,3.55.69,1.36,2.75,1.45,3.46,2.68,10.28,17.67,10.85,41.09,1.51,59.31-1.26,2.46-9.01,12.24-8.54,12.94,20.24,10.14,32.63,32.9,32.03,55.56-.1,3.77-1.77,11.76-2.83,15.06-11.21,34.79-48.54,52.86-82.88,38.57-16.14-6.71-29.57-22.37-34.33-39.18-40.46,22.47-90.93-3.2-92.99-50.01-25.99,5.02-55.07-7.65-66.01-31.99-1.52-1.13-8.77,5.72-10.66,6.82-44.2,25.82-97.32-6.86-93.32-57.82.58-7.33,3.46-16.13,6.79-22.71,1.11-2.2,5.8-7.1,5.13-8.72-6.25-6.26-16.09-9.89-21.92-16.57-1.09-1.25-6.02-8.36-7-10ZM426.72,215.13c-8.21,2.25,2.95,24.81,12.35,19.43,4.74-6.12-6.26-21.1-12.35-19.43ZM528.49,258.36c-11.12.08,2.19,23.03,9.23,19.92,7.11-3.14-2.84-19.97-9.23-19.92ZM366.65,276.27c-10.03.98,2.84,23.67,11.42,19.3,4.07-6.01-5.05-19.92-11.42-19.3ZM463.71,302.19c-11.43,3.43,12.79,23.86,17.84,13.8,2.47-4.92-11.09-15.83-17.84-13.8ZM573.32,358.69c8.9,10.09,16.51,1.31,7.68-10.19-10.17-13.25-16.78-.13-7.68,10.19ZM418.85,383.85c3.73-5.97-10.09-24.33-15.6-18.61-4.6,4.77,4.07,18.25,9.51,19.56,1.42.34,5.51-.02,6.09-.95ZM499.25,408.26c-4.94,5.89,7.6,22.75,13.82,18.31,6.21-4.43-8.62-24.51-13.82-18.31ZM322.62,438.07c-7.81,2.57,7.93,23.27,15.96,16l-.51-4.64c-4.6-1.54-10.99-12.82-15.45-11.35ZM576.55,474.44c10.7,13.26,17.49,1.79,8.47-8.96-9.82-11.7-16.98-1.59-8.47,8.96ZM414.67,473.1c-7.37,1.89.62,18.6,8.33,20.48,4.33,1.05,6.21-2.9,4.49-6.57-.35-.74-9.39-12.46-10-13-1.02-.9-1.29-1.3-2.81-.91ZM513.75,537.74c3.57-4.16-4.06-16.79-8.69-18.29-11.63-3.77-5.95,11.23-1.06,16.06,2.1,2.07,7.4,4.97,9.76,2.23ZM592.66,554.23c-8.52.68-.96,17.05,5.38,19.22,14.78,5.07,3.25-19.91-5.38-19.22Z" style="fill: #7d3b96;"/>
      <path d="M418.85,383.85c-.58.93-4.67,1.29-6.09.95-5.45-1.31-14.11-14.8-9.51-19.56,5.51-5.72,19.34,12.64,15.6,18.61Z" style="fill: #fefefd;"/>
      <path d="M463.71,302.19c6.75-2.02,20.31,8.88,17.84,13.8-5.06,10.06-29.27-10.38-17.84-13.8Z" style="fill: #fefefd;"/>
      <path d="M426.72,215.13c6.09-1.67,17.09,13.31,12.35,19.43-9.4,5.38-20.56-17.18-12.35-19.43Z" style="fill: #fefefd;"/>
      <path d="M576.55,474.44c-8.51-10.55-1.35-20.66,8.47-8.96,9.02,10.74,2.23,22.22-8.47,8.96Z" style="fill: #fefefd;"/>
      <path d="M513.75,537.74c-2.35,2.74-7.66-.17-9.76-2.23-4.89-4.82-10.57-19.83,1.06-16.06,4.63,1.5,12.26,14.13,8.69,18.29Z" style="fill: #fefefd;"/>
      <path d="M592.66,554.23c8.63-.69,20.16,24.29,5.38,19.22-6.34-2.17-13.91-18.54-5.38-19.22Z" style="fill: #fefefd;"/>
      <path d="M573.32,358.69c-9.1-10.32-2.5-23.43,7.68-10.19,8.83,11.5,1.22,20.28-7.68,10.19Z" style="fill: #fefefd;"/>
      <path d="M366.65,276.27c6.37-.62,15.5,13.29,11.42,19.3-8.59,4.37-21.45-18.33-11.42-19.3Z" style="fill: #fefefd;"/>
      <path d="M528.49,258.36c6.39-.05,16.34,16.78,9.23,19.92-7.05,3.11-20.35-19.84-9.23-19.92Z" style="fill: #fefefd;"/>
      <path d="M499.25,408.26c5.2-6.2,20.04,13.88,13.82,18.31-6.22,4.43-18.76-12.42-13.82-18.31Z" style="fill: #fefefd;"/>
      <path d="M414.67,473.1c1.52-.39,1.8.01,2.81.91.61.54,9.65,12.26,10,13,1.72,3.67-.16,7.62-4.49,6.57-7.7-1.88-15.7-18.59-8.33-20.48Z" style="fill: #fefefd;"/>
      <path d="M322.62,438.07c4.46-1.47,10.85,9.81,15.45,11.35l.51,4.64c-8.03,7.27-23.77-13.43-15.96-16Z" style="fill: #fefefd;"/>
    </g>
  </g>
</svg>