<?xml version="1.0" encoding="UTF-8"?>
<svg id="Layer_1" data-name="Layer 1" xmlns="http://www.w3.org/2000/svg" viewBox="0 0 344.51 409.18">
  <g id="lemon">
    <path d="M95.15,266.18c10.35-.21,20.71-.64,31-1.99l-11,34.99c-.76.35-1.5.04-2.03.65-17.07,27.32-29.21,57.83-32.71,90.12-8.16,6.38-18.99,10.29-25.27,19.23h-19c3.78-15.01,15.04-26.75,28.84-33.16-.82-38.79,10.62-76.75,30.16-109.84Z" style="fill: #fefefe;"/>
    <path d="M157.15,233.18c-14.88,26.53,12.12,33.33,33,27,4.54,2.96,13.13,7.83,18,10-17.53,8.51-36.36,9.53-54.76,14.74-12,3.39-26.93,9.03-38.24,14.26l11-34.99c-10.29,1.36-20.64,1.79-31,1.99-15.42.31-30.68-.33-45.99-1.01l42.99-34.99c21.84,6.36,42.77,5.92,65,3Z" style="fill: #63be37;"/>
    <path d="M190.15,260.18c-20.88,6.33-47.88-.47-33-27,1.42-.19,4.02-1.15,4.99-.56,7.23,10.2,17.51,20.69,28.01,27.56Z" style="fill: #feed95;"/>
  </g>
  <g>
    <path d="M232.95,89.47c66.89-4.31,126.62,61.14,91.37,125.38-36.92,67.28-147.88,62.14-175.19-10.15-22.12-58.53,25.96-111.5,83.82-115.23ZM225.95,95.47c-62.6,6.37-100.64,78.79-57.31,129.72,53.14,62.46,168.86,24.2,157.4-60.4-6.5-47.95-54.81-73.93-100.09-69.32Z" style="fill: #fee76a;"/>
    <path d="M225.95,95.47c45.28-4.61,93.59,21.37,100.09,69.32,11.46,84.59-104.25,122.85-157.4,60.4-43.34-50.93-5.29-123.35,57.31-129.72ZM238.89,98.42c-9.79,1.64-8.07,8.05-7.78,16.3.41,11.6,1.52,30.73,4.32,41.68,3.46,13.56,9.98,2.97,15.13-3.32,10.25-12.52,18.85-27.78,27.61-41.42-6.79-11.99-26.81-15.33-39.27-13.24ZM233.15,160.17c1.96-2.04-9.33-53.17-11.43-55.06-5.71-5.15-21.23-.83-27.48,2.64-4.64,2.58-18.75,12.78-13.6,18.45,13.8,9.18,27.22,21.24,41.6,29.39,1.56.88,9.86,5.67,10.91,4.58ZM247.16,164.17c6.12-.27,12.37.39,18.49,0,9.68-.62,37.25-3.62,45.55-6.45,7.01-2.4,4.04-15.88,1.17-21.24-3.6-6.71-21.71-20.44-29.49-18.11-2.69.81-21.66,23.41-24.69,27.34-1.72,2.23-13.04,16.56-11.02,18.47ZM229.11,168.13c.39-1.79,0-2.98-.91-4.51-3.02-5.09-36.22-23.22-43.37-26.63-1.91-.91-10-4.72-11.25-4.81-10.53-.72-25.33,33.57-8.87,36.93,21.46-.12,43.18,3.3,64.4-.99ZM276.15,194.18c9.34,6.67,18.89,12.95,28.76,18.82,9,2.28,16.54-19.48,17.23-26.33.47-4.68.73-16.72-3.68-19.3-3.26-1.91-9.46-1.06-13.31-1.19-13.19-.43-30.61-1.05-43.54-.04-16.8,1.31-12.36,6.52-2.99,15.06,5.2,4.75,11.78,8.87,17.53,12.97ZM230.11,173.22c-2.35-2.76-43.88.28-50.45.96-3.9.4-16.32,1.25-17.96,4.04-3.77,6.41-.94,23.83,2.28,30.64,3.02,6.4,17.33,24.41,25.17,20.8,2.08-.96,8.92-9.58,10.99-12,7.19-8.41,15.65-19.04,21.84-28.16,1.71-2.53,10.14-13.92,8.14-16.27ZM207.15,222.18c-.06.11-1.3.53-1.85,1.6-2.07,4.1-6.23,9.86-4.4,14.13,4.27,9.95,37.45,15.38,44.8,7.32,4.21-4.61-.64-26.07.45-33.05-1.45-5.18-2.78-33.6-6.09-35.9-4.49-3.12-15.16,13.68-17.32,16.99-6.05,9.27-10.52,19.19-15.58,28.92ZM249.15,209.18c1.14,4.99,7.56,31.55,10.05,33.45,9.63,7.37,42.47-8.68,39.78-21.72-.5-2.41-3.12-4.57-4.82-6.25-6.76-6.68-14.96-12.57-22.01-18.49-6.2-5.2-11.72-11.24-18.68-15.82-2.85-1.88-5.6-4.7-9.31-4.19-.66,11.22,2.52,22.17,5,33Z" style="fill: #feed95;"/>
    <path d="M230.11,173.22c2,2.34-6.43,13.74-8.14,16.27-6.19,9.12-14.65,19.75-21.84,28.16-2.07,2.42-8.91,11.04-10.99,12-7.83,3.61-22.14-14.4-25.17-20.8-3.22-6.81-6.04-24.23-2.28-30.64,1.64-2.79,14.06-3.63,17.96-4.04,6.57-.68,48.1-3.71,50.45-.96Z" style="fill: #fed702;"/>
    <path d="M247.16,164.17c-2.01-1.91,9.31-16.24,11.02-18.47,3.03-3.93,22-26.53,24.69-27.34,7.78-2.33,25.89,11.4,29.49,18.11,2.87,5.36,5.84,18.84-1.17,21.24-8.3,2.84-35.86,5.83-45.55,6.45-6.12.39-12.37-.26-18.49,0Z" style="fill: #fed702;"/>
    <path d="M238.89,98.42c12.46-2.09,32.48,1.26,39.27,13.24-8.76,13.63-17.36,28.9-27.61,41.42-5.15,6.29-11.66,16.88-15.13,3.32-2.8-10.95-3.91-30.08-4.32-41.68-.29-8.25-2-14.66,7.78-16.3Z" style="fill: #fed702;"/>
    <path d="M233.15,160.17c-1.05,1.09-9.35-3.69-10.91-4.58-14.38-8.15-27.79-20.21-41.6-29.39-5.15-5.67,8.96-15.87,13.6-18.45,6.25-3.47,21.77-7.79,27.48-2.64,2.1,1.89,13.39,53.02,11.43,55.06Z" style="fill: #fed702;"/>
    <path d="M229.11,168.13c-21.22,4.29-42.94.87-64.4.99-16.46-3.36-1.67-37.65,8.87-36.93,1.26.09,9.34,3.9,11.25,4.81,7.15,3.4,40.35,21.54,43.37,26.63.91,1.53,1.29,2.71.91,4.51ZM197.32,154.13c0-3.34-2.71-6.05-6.05-6.05s-6.05,2.71-6.05,6.05,2.71,6.05,6.05,6.05,6.05-2.71,6.05-6.05Z" style="fill: #fed702;"/>
    <path d="M249.15,209.18c8.14-3.01,16.09-7.75,23-13,7.05,5.92,15.25,11.81,22.01,18.49,1.69,1.67,4.32,3.84,4.82,6.25,2.69,13.03-30.15,29.09-39.78,21.72-2.49-1.9-8.9-28.46-10.05-33.45Z" style="fill: #fec800;"/>
    <path d="M276.15,194.18c10.48-8.47,21.1-16.95,29-28,3.85.13,10.05-.73,13.31,1.19,4.4,2.59,4.15,14.62,3.68,19.3-.69,6.84-8.23,28.6-17.23,26.33-9.88-5.87-19.42-12.15-28.76-18.82Z" style="fill: #fec800;"/>
    <path d="M246.15,212.18c-1.09,6.98,3.76,28.44-.45,33.05-7.36,8.06-40.53,2.63-44.8-7.32-1.83-4.26,2.33-10.03,4.4-14.13.54-1.07,1.79-1.49,1.85-1.6l39-10Z" style="fill: #fec800;"/>
    <path d="M207.15,222.18c5.06-9.72,9.53-19.65,15.58-28.92,2.16-3.31,12.84-20.1,17.32-16.99,3.31,2.3,4.64,30.72,6.09,35.9l-39,10Z" style="fill: #fed702;"/>
    <path d="M305.15,166.18c-7.9,11.05-18.52,19.53-29,28-5.75-4.11-12.33-8.23-17.53-12.97-9.36-8.55-13.81-13.75,2.99-15.06,12.92-1.01,30.35-.39,43.54.04Z" style="fill: #fed702;"/>
    <path d="M272.15,196.18c-6.91,5.25-14.86,9.99-23,13-2.48-10.83-5.65-21.79-5-33,3.71-.51,6.46,2.31,9.31,4.19,6.97,4.58,12.48,10.61,18.68,15.82Z" style="fill: #fed702;"/>
    <circle cx="191.28" cy="154.13" r="6.05" style="fill: #fefefe;"/>
  </g>
  <g>
    <path d="M162.15,19.18c24.89,21.52,64.5,47.73,98,50-.17,3.3.25,6.71,0,10-.01.17-.95,1.12-1.04,2.42-.2,2.84.19,5.75.04,8.59.96.14,2.12-.18,3,0,39.84,7.73,69.7,35.35,79.32,75.18,19.64,81.31-59.95,137.49-133.32,104.82-4.87-2.17-13.46-7.04-18-10-10.5-6.86-20.78-17.35-28.01-27.56-.97-.59-3.56.37-4.99.56-22.23,2.92-43.16,3.36-65-3-24.03-7-44.96-22.95-59.82-42.68-1.65-2.2-5.37-9.49-6.61-10.39-1.84-1.34-9.24-2.09-12.57-3.43-20.12-8.12-15.3-30.17,1.83-37.65C13.75,60.81,92.46,11.11,162.15,19.18ZM85.92,69.37c-7.26,1.06-13.37,11.62-4.03,13.61,13.3,2.83,17.5-15.58,4.03-13.61ZM232.95,89.47c-57.86,3.73-105.94,56.7-83.82,115.23,27.31,72.28,138.27,77.43,175.19,10.15,35.25-64.23-24.48-129.69-91.37-125.38Z" style="fill: #fec800;"/>
    <path d="M162.15,19.18c-5.68-4.92-11.13-10.26-16-15.99,10.08.12,20.5-2.58,30.46-3.05,46.87-2.22,94.74,23.11,129.18,52.98,4.04-.52,10.95-11.67,14.39-9.49,1.73,1.1,2.88,5.34.49,6.57-15.57,11.4-31.31,22.87-48.85,31.15-1.94.92-10.34,3.38-10.68,3.84-.15.2,1.69,3.64,1.01,4.99-.89-.17-2.04.14-3,0,.15-2.84-.24-5.75-.04-8.59.09-1.3,1.03-2.25,1.04-2.42l3.66-.84,20.35-10.66c-8.05.68-15.84,2.05-24.01,1.5-33.5-2.27-73.11-28.48-98-50Z" style="fill: #63be37;"/>
    <path d="M85.92,69.37c13.46-1.97,9.27,16.44-4.03,13.61-9.34-1.99-3.23-12.55,4.03-13.61Z" style="fill: #fefefe;"/>
  </g>
</svg>