<?xml version="1.0" encoding="UTF-8"?>
<svg id="Layer_1" data-name="Layer 1" xmlns="http://www.w3.org/2000/svg" viewBox="0 0 512 512">
  <path d="M512,0v512H0V0h512ZM392,240c14.98-7.27,4.68-28.52-.14-39.36-13.7-30.8-29.54-45.38-60.18-58.82-31.76-13.92-68.25-22.31-103.16-19.81-15.73,1.12-36.12,9.09-51.22.19-13.97-8.23-23.96-36.79-29.31-51.69-3.12-8.69-11.79-42.16-16.62-46.38-9.22-8.07-20.81,0-19.28,12.28s12.38,40.48,17.17,52.83c6.63,17.1,14.45,35.18,28.22,47.78,1.42,1.3,7.53,5.02,7.54,5.48.01,1.63-.73,1.53-1.67,2.33-5.7,4.82-12.91,8.79-18.87,14.13-42.22,37.91-58.39,93.59-49.16,149.21,2.5,15.06,5.68,40.43,26.69,34.81,1.08,7.13,3.93,14.24,6.53,20.97,11.08,28.75,31.35,75.36,56.15,93.85,15.97,11.91,25.59,7.18,43.87,8.13,26.73,1.39,79.24,4.27,101.39,18.61,2.23,1.44,4.03,3.79,6.06,5.43,3.9-11.99,7.56-24.35,14.06-35.23,4.53-7.59,10.96-12.17,16.52-18.72,26.17-30.84,60.17-75.6,51.16-119.27l-25.73-76.77Z" style="fill: #fefefe;"/>
  <g>
    <path id="nut" d="M392,240l25.73,76.77c9.01,43.67-24.99,88.43-51.16,119.27-5.56,6.55-11.99,11.13-16.52,18.72-6.5,10.89-10.16,23.25-14.06,35.23-2.02-1.64-3.83-3.99-6.06-5.43-22.16-14.33-74.66-17.22-101.39-18.61-18.28-.95-27.9,3.78-43.87-8.13-24.79-18.49-45.06-65.11-56.15-93.85-2.6-6.74-5.45-13.85-6.53-20.97,67.11-44.57,141.6-75.49,220.28-93.26,1.25-.28,1.6-1.72,1.72-1.74,1.37-.3,5.03-.38,8-1,9.53-1.98,32.78-3.5,40-7Z" style="fill: #f3a546;"/>
    <g>
      <path d="M392,240c-7.22,3.5-30.47,5.02-40,7-.99-1.84-5.8-28.4-9.99-24-1.18,8.24-.23,16.95,1.99,25-.12.03-.46,1.46-1.72,1.74-78.68,17.77-153.18,48.69-220.28,93.26-21,5.62-24.19-19.76-26.69-34.81-9.23-55.63,6.94-111.3,49.16-149.21,5.96-5.35,13.16-9.31,18.87-14.13.94-.8,1.68-.7,1.67-2.33,0-.47-6.11-4.18-7.54-5.48-13.77-12.6-21.59-30.68-28.22-47.78-4.79-12.35-15.67-40.82-17.17-52.83s10.06-20.36,19.28-12.28c4.83,4.23,13.5,37.69,16.62,46.38,5.35,14.9,15.34,43.46,29.31,51.69,15.1,8.89,35.49.93,51.22-.19,34.91-2.49,71.4,5.89,103.16,19.81,30.64,13.43,46.49,28.02,60.18,58.82,4.82,10.83,15.13,32.09.14,39.36ZM286.84,169.85c5.4-3.41-7.43-10.99-9.3-13.89-1.67-2.61-3.01-12.35-7.57-9.5-7.46,4.64,8.6,28.61,16.87,23.4ZM211.01,164c-.28,2.93-1.55,4.92-.58,8.03,1.79,5.75,15.93,25.08,22.59,18.48,4.38-4.35-7.47-9.51-10.51-12.52-1.38-1.37-3.69-4.38-4.94-6.06-1.97-2.63-2.5-7.81-6.56-7.93ZM347.86,201.86c.36-.22.97-2.53.88-3.21-.15-1.14-4.08-11.36-4.86-13.03-1.81-3.85-6.98-12-9.65-15.35-.94-1.18-1.13-2.74-3.22-2.27.94,6.91,5.23,12.51,7.29,19.2,1.14,3.71,1.24,11.24,3.6,14.18.81,1.01,5.13.99,5.96.48ZM295.61,181.08c-1.3.31-2.39,2.9-2.35,4.25.03.82,4.91,14.35,5.52,15.39,3.42,5.83,12.69,3.8,9.47-3.47-.54-1.22-7.93-13.06-8.83-14.17-.76-.94-2.68-2.27-3.81-2.01ZM191.63,187.06c-.5.09-1.93,1.44-2.16,1.96-1.8,4.08,11.68,20.44,15.8,22.23,3.5,1.52,9.46-.28,7.28-4.28-.47-.87-12.3-11.06-14.57-13.45-1.47-1.55-4.32-6.83-6.35-6.46ZM271.85,214.85c.7-.44,1.31-3.99,1.01-5.13-.47-1.77-3.87-3.37-4.94-6.15-1.27-3.31-.04-8.53-2.92-10.08-8.75-4.7-7.18,18.37.94,21.05,1.36.45,4.86.97,5.91.31ZM143.51,203c-5.33,1.24-.55,10.9,1.25,13.73,2.83,4.45,9.23,13.68,15.23,10.76s-3.09-7.84-5.51-10.48c-2.17-2.37-9.47-14.36-10.97-14.01ZM293.01,216c-1.75,4.19.55,6.5.93,9.56.97,7.71-.33,27.62,11.11,23.98,5.68-1.81.69-5.98-.52-9.57-2.02-5.99-4.39-18.24-8.54-22.46-.96-.97-1.31-1.9-2.98-1.51ZM204.53,224.01c-6.92,2,9.82,16.75,12.54,18.43,3.36,2.06,8.23,4.57,10.44-.44,1.73-3.92-8.32-7.76-11.85-10.16-2.3-1.57-8.9-8.47-11.14-7.83ZM154.86,270.87c.58-.92.26-3.84-.36-4.88-.41-.69-10.88-6.01-13.53-8.46-5.25-4.87-9.95-12.87-14.42-18.58l-3.56-.93c-.99,10.06,15.2,30.74,23.94,33.56,1.73.56,7.12.59,7.92-.69ZM247.89,244.11c-2.26-1.45-3.89,1.13-3.77,3.4.21,3.93,12.27,18.69,15.62,19.34,2.4.47,6.25-1.22,4.82-3.87-.74-1.37-11.1-9.28-13.56-12.48-1.27-1.66-2.82-6.19-3.12-6.39ZM167.95,253.04c-6.36-4.21-2.91,9.69-1.33,12.85,2.83,5.68,17.02,24.72,24.44,19.66,4.97-3.39-4.67-7.93-6.53-9.57-5.87-5.2-10.1-11.12-14.33-17.67-.89-1.38-2.01-5.11-2.25-5.27ZM135.69,312.29c-.85-1-15.96-8.85-17.43-9.11-4.19-.75-5.8,2.3-3.25,5.31.93,1.1,6.1,3.82,7.9,5.09,3.72,2.63,3.84,6.03,9.6,5.5,4.08-.38,5.92-3.58,3.18-6.79Z" style="fill: #46332d;"/>
      <path d="M352,247c-2.97.62-6.63.7-8,1-2.22-8.05-3.18-16.76-1.99-25,4.19-4.4,9,22.15,9.99,24Z" style="fill: #f3efed;"/>
      <path d="M154.86,270.87c-.8,1.29-6.19,1.25-7.92.69-8.74-2.82-24.93-23.5-23.94-33.56l3.56.93c4.47,5.71,9.16,13.71,14.42,18.58,2.65,2.45,13.12,7.78,13.53,8.46.62,1.04.93,3.96.36,4.88Z" style="fill: #f4f2f0;"/>
      <path d="M167.95,253.04c.24.16,1.36,3.89,2.25,5.27,4.22,6.55,8.46,12.47,14.33,17.67,1.85,1.64,11.5,6.18,6.53,9.57-7.42,5.06-21.6-13.98-24.44-19.66-1.58-3.16-5.03-17.06,1.33-12.85Z" style="fill: #f4f2f0;"/>
      <path d="M293.01,216c1.67-.38,2.02.55,2.98,1.51,4.16,4.22,6.52,16.47,8.54,22.46,1.21,3.59,6.2,7.76.52,9.57-11.43,3.64-10.14-16.27-11.11-23.98-.38-3.06-2.69-5.38-.93-9.56Z" style="fill: #f4f2f0;"/>
      <path d="M211.01,164c4.06.13,4.59,5.3,6.56,7.93,1.25,1.68,3.56,4.69,4.94,6.06,3.04,3.02,14.9,8.18,10.51,12.52-6.66,6.6-20.8-12.74-22.59-18.48-.97-3.11.3-5.1.58-8.03Z" style="fill: #f5f3f2;"/>
      <path d="M191.63,187.06c2.03-.37,4.88,4.92,6.35,6.46,2.27,2.39,14.1,12.58,14.57,13.45,2.18,4-3.77,5.79-7.28,4.28-4.12-1.79-17.6-18.15-15.8-22.23.23-.52,1.66-1.87,2.16-1.96Z" style="fill: #f4f2f0;"/>
      <path d="M286.84,169.85c-8.27,5.22-24.33-18.75-16.87-23.4,4.57-2.84,5.9,6.9,7.57,9.5,1.86,2.9,14.7,10.48,9.3,13.89Z" style="fill: #f5f3f2;"/>
      <path d="M143.51,203c1.5-.35,8.8,11.64,10.97,14.01,2.42,2.64,11.54,7.54,5.51,10.48s-12.39-6.31-15.23-10.76c-1.8-2.83-6.58-12.49-1.25-13.73Z" style="fill: #f4f2f0;"/>
      <path d="M204.53,224.01c2.24-.65,8.84,6.26,11.14,7.83,3.52,2.4,13.58,6.23,11.85,10.16-2.22,5.02-7.09,2.5-10.44.44-2.73-1.67-19.46-16.43-12.54-18.43Z" style="fill: #f5f3f2;"/>
      <path d="M347.86,201.86c-.83.51-5.15.53-5.96-.48-2.36-2.94-2.46-10.47-3.6-14.18-2.06-6.68-6.35-12.29-7.29-19.2,2.08-.47,2.27,1.1,3.22,2.27,2.68,3.34,7.85,11.5,9.65,15.35.78,1.67,4.71,11.89,4.86,13.03.09.68-.52,2.99-.88,3.21Z" style="fill: #f3efed;"/>
      <path d="M295.61,181.08c1.12-.27,3.05,1.07,3.81,2.01.9,1.11,8.3,12.95,8.83,14.17,3.22,7.27-6.05,9.3-9.47,3.47-.61-1.05-5.49-14.58-5.52-15.39-.04-1.35,1.05-3.94,2.35-4.25Z" style="fill: #f5f3f2;"/>
      <path d="M271.85,214.85c-1.05.66-4.55.14-5.91-.31-8.12-2.68-9.69-25.75-.94-21.05,2.88,1.55,1.65,6.77,2.92,10.08,1.07,2.77,4.47,4.37,4.94,6.15.3,1.15-.31,4.69-1.01,5.13Z" style="fill: #f3efed;"/>
      <path d="M135.69,312.29c2.74,3.22.9,6.41-3.18,6.79-5.76.53-5.88-2.87-9.6-5.5-1.8-1.27-6.97-4-7.9-5.09-2.55-3.01-.95-6.07,3.25-5.31,1.48.26,16.58,8.11,17.43,9.11Z" style="fill: #f4f2f0;"/>
      <path d="M247.89,244.11c.3.19,1.84,4.73,3.12,6.39,2.46,3.2,12.82,11.11,13.56,12.48,1.43,2.65-2.42,4.34-4.82,3.87-3.35-.66-15.42-15.42-15.62-19.34-.12-2.27,1.51-4.84,3.77-3.4Z" style="fill: #f3efed;"/>
    </g>
  </g>
</svg>