<?xml version="1.0" encoding="UTF-8"?>
<svg id="Layer_1" data-name="Layer 1" xmlns="http://www.w3.org/2000/svg" viewBox="0 0 1920 1920">
  <path d="M1920,0v1920H0V0h1920ZM1333,1427c25.31-42.66,33.09-91.66,46.5-139,18.97-66.96,39.68-132.95,55.01-200.99,40.2-178.48,68.57-360.13,84.5-542.5,2.27-26.02,12.48-75.97,4.01-99.03-6.18-16.81-32.04-35.9-46.7-46.3-4.43-3.14-19.84-14.07-24.04-14.95-3.63-.77-12.05-.49-12.28,3.77-11.25,2.62-21.6,9.3-31.67,14.83-62.18,34.12-123.59,70.46-185,106-278.25,161.03-552.8,328.33-818.33,509.17-20.63,14.05-38.33,18.15-46.5,46-5.5,18.77,4.7,54.05,11.5,72,5.96,15.75,10.92,25.22,19,40,19.73,36.08,38.91,65.24,65,97,13.82,16.81,27.8,31.64,43,47,35.43,35.81,68.42,61.75,111,89,14.71,9.41,25.13,15.81,41,24,46,23.74,89.64,41.17,140,54,17.12,4.36,33.84,7.5,51,11,52.15,10.62,100.66,18.31,154,22,5.55.38,11.08.94,17,1,1.36,1.74,4.81.98,7,1,4.03.04,9.16.43,13,0l84-5c37.83.61,82.53-9.5,119.01-19.49,42.54-11.65,76.12-31.96,98.99-70.51Z" style="fill: #fefefe;"/>
  <g>
    <g id="watermelon_left">
      <path d="M1333,1427c-25.28-2.19-51-.03-76.01-5.49-9.02-1.97-20.47-7.5-28.59-8.4-6.86-.76-18.07.76-25.4.89,6.64-31.44,14.05-62.98,22.48-94.02,55.4-203.87,130.19-407,166.23-615.77,18.13-105.02,31.66-210.94,48.29-316.21.23-4.26,8.65-4.53,12.28-3.77,4.2.89,19.6,11.81,24.04,14.95,14.67,10.4,40.53,29.48,46.7,46.3,8.47,23.06-1.74,73.01-4.01,99.03-15.93,182.38-44.29,364.03-84.5,542.5-15.33,68.04-36.04,134.03-55.01,200.99-13.41,47.33-21.2,96.34-46.5,139ZM1487.99,701.01c-3.02-.49-1.6.75-2.02,2.43-.7,2.78-1.17,5.68-.97,8.56,4.63-.06,2.55-8.22,2.99-10.99ZM1434.73,725.24c-12.81,2.17-20.21,16.94-24.02,27.97-4.2,12.18-12.04,41,8.95,41.41s41.19-44.48,31.89-61.67c-3.56-6.58-9.44-8.95-16.82-7.71ZM1346.69,1207.3c-4.09-4.54-20.99-8.66-23.96-2.07-.97,2.16-.45,4.61-1.21,6.79-1.54,4.45-4.91,7.86-6.56,13.44-2.65,9.01-4.42,28.2,2.98,35.08.77.71,8.33,5.8,8.99,6.01,15.07,4.74,25.56-13.7,26.95-26.16.9-8.02-1.71-27-7.2-33.09Z" style="fill: #e71d26;"/>
      <path d="M1434.73,725.24c7.37-1.25,13.25,1.12,16.82,7.71,9.3,17.19-10.09,62.1-31.89,61.67s-13.15-29.23-8.95-41.41c3.81-11.04,11.21-25.8,24.02-27.97Z" style="fill: #030202;"/>
      <path d="M1346.69,1207.3c5.49,6.09,8.1,25.07,7.2,33.09-1.39,12.46-11.88,30.9-26.95,26.16-.66-.21-8.22-5.29-8.99-6.01-7.41-6.88-5.64-26.07-2.98-35.08,1.64-5.58,5.01-9,6.56-13.44.76-2.18.24-4.63,1.21-6.79,2.96-6.6,19.87-2.47,23.96,2.07Z" style="fill: #030202;"/>
      <path d="M1487.99,701.01c-.44,2.77,1.64,10.93-2.99,10.99-.2-2.88.27-5.78.97-8.56.42-1.68-1-2.92,2.02-2.43Z" style="fill: #f05d65;"/>
    </g>
    <g id="watermelon_bottom">
      <path d="M405,1018c20.33,48.68,49.88,92.72,83.02,133.48,148.66,182.79,422.77,261.43,651.43,263.57,20.86.2,41.7-.64,62.54-1.04-1.04,6.76-2.78,12.04-7.02,17.48-10.37,13.29-27.43,25.31-38.45,38.55l-48.52,46.48c1.93.96,4.8.46,7,.5l-84,5c.9-.1,3.08-1.82,4.99-1.01,1.4-11.77,1.06-23.65,1.05-35.53,0-4.57,0-9.46-.05-13.97-.12-9.76,1.43-35.24-14.88-28.87-6.83,2.66-9.72,5.84-12.59,12.4-8.58,19.57-11.05,44.14-15.52,64.98-53.34-3.69-101.85-11.38-154-22,1.24-5.33,2.29-11.19,2.87-16.63,2.23-20.77,3.93-49.27,2.16-69.91-1.3-15.08-13.25-23.51-24.04-9.96-7.62,9.57-19.51,43.93-24.02,56.98-3.21,9.28-6.57,18.78-7.98,28.52-50.36-12.83-94-30.26-140-54,5.94-20.71,21.95-53.68,17.56-75.06-2.39-11.64-14.9-16.38-23.08-6.96l-35.48,58.02c-42.58-27.25-75.57-53.19-111-89,5.82-13.44,11.57-27.04,16.75-40.75,5.23-13.83,14.08-31.96,12.27-46.77-.96-7.89-6.84-11.67-14.47-10.42-5.77.95-23.38,17.61-28.57,22.43-9.91,9.21-18.7,19.69-28.99,28.51-26.09-31.76-45.27-60.92-65-97,6.41-4.24,11.68-12.65,16.41-19.09,6.93-9.43,22.61-30.74,24.35-41.66,1.6-10.05-.78-17.61-12.29-16.28-6.93.81-27.54,18.61-33.95,24.04-4.72,4-9.65,8.1-13.53,12.97-6.8-17.95-17-53.23-11.5-72,8.16-27.85,25.87-31.95,46.5-46Z" style="fill: #86bc57;"/>
      <path d="M1333,1427c-22.86,38.55-56.45,58.86-98.99,70.51-36.48,9.99-81.18,20.1-119.01,19.49-2.2-.04-5.06.47-7-.5l48.52-46.48c11.02-13.24,28.08-25.26,38.45-38.55,4.24-5.43,5.98-10.72,7.02-17.48.33,0,.67,0,1,0,7.32-.13,18.53-1.64,25.4-.89,8.13.89,19.57,6.43,28.59,8.4,25.01,5.46,50.73,3.3,76.01,5.49Z" style="fill: #237a3d;"/>
      <path d="M840,1498c-17.16-3.5-33.88-6.64-51-11,1.41-9.74,4.78-19.24,7.98-28.52,4.51-13.05,16.4-47.41,24.02-56.98,10.78-13.54,22.74-5.12,24.04,9.96,1.77,20.64.07,49.14-2.16,69.91-.59,5.44-1.63,11.3-2.87,16.63Z" style="fill: #237a3d;"/>
      <path d="M497,1320c-15.2-15.36-29.18-30.19-43-47,10.29-8.82,19.07-19.3,28.99-28.51,5.19-4.82,22.8-21.48,28.57-22.43,7.63-1.25,13.51,2.53,14.47,10.42,1.81,14.81-7.05,32.94-12.27,46.77-5.18,13.71-10.93,27.31-16.75,40.75Z" style="fill: #237a3d;"/>
      <path d="M649,1433c-15.87-8.19-26.29-14.59-41-24l35.48-58.02c8.17-9.42,20.69-4.68,23.08,6.96,4.39,21.38-11.62,54.35-17.56,75.06Z" style="fill: #237a3d;"/>
      <path d="M994,1520c4.47-20.84,6.94-45.41,15.52-64.98,2.88-6.56,5.76-9.74,12.59-12.4,16.31-6.36,14.75,19.11,14.88,28.87.06,4.51.05,9.4.05,13.97,0,11.88.35,23.76-1.05,35.53-1.92-.81-4.09.91-4.99,1.01-3.84.43-8.97.04-13,0-1.36-1.74-4.81-.98-7-1-5.92-.06-11.45-.62-17-1Z" style="fill: #237a3d;"/>
      <path d="M389,1176c-8.08-14.78-13.04-24.25-19-40,3.87-4.88,8.8-8.97,13.53-12.97,6.41-5.43,27.02-23.24,33.95-24.04,11.5-1.34,13.89,6.22,12.29,16.28-1.74,10.92-17.41,32.22-24.35,41.66-4.73,6.44-10,14.85-16.41,19.09Z" style="fill: #237a3d;"/>
      <path d="M1018,1522c-2.19-.02-5.64.74-7-1,2.19.02,5.64-.74,7,1Z" style="fill: #86bc57;"/>
    </g>
    <g id="watermelon_right">
      <path d="M1440,388c-16.63,105.26-30.16,211.19-48.29,316.21-36.04,208.77-110.83,411.91-166.23,615.77-8.43,31.03-15.85,62.58-22.48,94.02-.33,0-.67,0-1,0-20.84.4-41.68,1.24-62.54,1.04-228.67-2.14-502.78-80.78-651.43-263.57-33.15-40.76-62.69-84.8-83.02-133.48,265.53-180.84,540.08-348.14,818.33-509.17,61.41-35.54,122.82-71.88,185-106,10.08-5.53,20.43-12.21,31.67-14.83ZM1256.79,609.21c-13.09,1.31-29.89,16.32-37.62,26.45-10.07,13.2-21.85,32.31-10.61,48.27,6.83,9.7,13.39,12.59,24.71,7.84,19.08-8.02,43.17-41.54,43.75-62.33.27-9.63-10.7-21.19-20.24-20.23ZM1022.76,732.26c-21.53,2.68-42.93,28.82-48.04,48.96-7.77,30.61,19.49,35.53,39.3,19.3,12.78-10.47,38.94-40.39,31.89-57.91-2.65-6.57-16.45-11.17-23.14-10.34ZM1214.73,872.23c-8.49,1.75-19.65,19.68-22.5,27.5-3.09,8.47-5.44,17.68-.06,25.61,16.39,24.17,40.61-2.14,43.73-21.94,2.27-14.44-2.22-35.07-21.16-31.16ZM647.74,966.24c-17.27,2.71-51.97,28.94-57.05,45.95-4.92,16.45,6.3,27.63,22.82,25.82,18.83-2.07,57.25-30.78,58.27-50.81.14-2.78-.71-10.32-1.55-12.92-2.85-8.89-14.78-9.24-22.49-8.03ZM913.74,1012.24c-27.38,4.32-46.26,48.58-39.63,73.15,3.67,13.59,18.25,17.63,29.38,9.61,14.08-10.15,30.94-45.23,31.55-62.45.49-14-6.66-22.61-21.31-20.3ZM1058.76,1236.26c-22.47,3.08-32.29,27.91-26.47,47.95,10.03,34.56,44.46-1.85,51.2-20.22,7-19.09-5.72-30.34-24.73-27.73Z" style="fill: #f05d65;"/>
      <path d="M1256.79,609.21c9.54-.96,20.51,10.61,20.24,20.23-.58,20.79-24.66,54.31-43.75,62.33-11.32,4.75-17.88,1.86-24.71-7.84-11.24-15.96.54-35.07,10.61-48.27,7.73-10.13,24.53-25.14,37.62-26.45Z" style="fill: #030202;"/>
      <path d="M647.74,966.24c7.71-1.21,19.64-.86,22.49,8.03.83,2.6,1.69,10.14,1.55,12.92-1.03,20.03-39.44,48.75-58.27,50.81-16.52,1.81-27.74-9.37-22.82-25.82,5.09-17,39.78-43.23,57.05-45.95Z" style="fill: #030202;"/>
      <path d="M913.74,1012.24c14.65-2.31,21.8,6.31,21.31,20.3-.61,17.22-17.47,52.3-31.55,62.45-11.13,8.02-25.72,3.98-29.38-9.61-6.63-24.57,12.24-68.83,39.63-73.15Z" style="fill: #030202;"/>
      <path d="M1022.76,732.26c6.69-.83,20.5,3.77,23.14,10.34,7.06,17.52-19.11,47.44-31.89,57.91-19.81,16.23-47.07,11.31-39.3-19.3,5.11-20.14,26.51-46.28,48.04-48.96Z" style="fill: #030202;"/>
      <path d="M1058.76,1236.26c19.01-2.61,31.73,8.64,24.73,27.73-6.74,18.38-41.17,54.79-51.2,20.22-5.82-20.04,4.01-44.87,26.47-47.95Z" style="fill: #030202;"/>
      <path d="M1214.73,872.23c18.94-3.9,23.44,16.72,21.16,31.16-3.12,19.81-27.34,46.12-43.73,21.94-5.38-7.93-3.03-17.14.06-25.61,2.85-7.82,14.01-25.75,22.5-27.5Z" style="fill: #030202;"/>
    </g>
  </g>
</svg>